<svg width="200" height="200" viewBox="0 0 200 200" xmlns="http://www.w3.org/2000/svg" xmlns:xlink="http://www.w3.org/1999/xlink" fill="none" overflow="hidden"><defs><clipPath id="clip0_497_17731"><rect x="0" y="0" rx="36" width="200" height="200" fill="#FFFFFF"/></clipPath></defs><g clip-path="url(#clip0_497_17731)"><rect x="0" y="0" rx="36" width="200" height="200" fill="#FFFFFF"/><path d="M156.738 74.6618 128.656 74.6618 128.656 84.2207 136.874 84.2207 136.874 117.191 148.532 117.191 148.532 84.2207 156.744 84.2207 156.744 74.6618 156.738 74.6618ZM125.86 117.149 114.202 117.149 114.202 74.6618 125.86 74.6618 125.86 117.149ZM112.237 117.149 99.2695 117.149 83.8516 100.597 83.8516 91.1229 98.7843 74.6133 112.128 74.6133 94.9449 96.0115 112.237 117.149 112.237 117.149Z" fill="#000000" fill-rule="evenodd" clip-rule="evenodd"/><path d="M47.826 90.207C45.5813 92.9111 43.688 95.8886 42.1914 99.0684L81.0758 117.149 47.826 90.207Z" fill="#009682" fill-rule="evenodd" clip-rule="evenodd"/><path d="M81.0745 117.149 62.9333 78.6221C59.7479 80.0641 56.7549 81.8978 54.0234 84.0808L81.0745 117.149Z" fill="#009682" fill-rule="evenodd" clip-rule="evenodd"/><path d="M81.0734 117.149 81.0734 74.6621 80.7216 74.6621C77.3393 74.6664 73.9696 75.0737 70.6836 75.8752L81.0734 117.149Z" fill="#000000" fill-rule="evenodd" clip-rule="evenodd"/><path d="M39.3955 106.753C38.5215 110.15 38.0672 113.641 38.043 117.149L81.076 117.149 39.3955 106.753Z" fill="#009682" fill-rule="evenodd" clip-rule="evenodd"/><path d="M38.0117 127.709 38.7699 127.709 38.7699 125.125 41.1232 127.709 42.2271 127.709 39.5462 124.925 42.033 122.426 41.0262 122.426 38.7699 124.755 38.7699 122.426 38.0117 122.426 38.0117 127.709Z" fill="#000000"/><path d="M43.1315 124.719C43.2357 124.64 43.3499 124.574 43.4712 124.525 43.5946 124.463 43.7249 124.416 43.8593 124.385 43.9925 124.354 44.1289 124.338 44.2657 124.337 44.4585 124.327 44.6505 124.367 44.8237 124.452 44.9639 124.52 45.0725 124.64 45.127 124.786 45.192 124.964 45.2229 125.154 45.218 125.344L44.4477 125.344C44.2913 125.344 44.1352 125.356 43.9806 125.38 43.8169 125.409 43.6565 125.453 43.5015 125.513 43.3466 125.567 43.2013 125.645 43.0708 125.744 42.9474 125.845 42.8444 125.968 42.7676 126.108 42.6935 126.265 42.6542 126.437 42.6523 126.611 42.6589 126.851 42.7324 127.084 42.8646 127.285 42.9851 127.465 43.1591 127.603 43.362 127.679 43.5982 127.768 43.8494 127.811 44.1019 127.806 44.2496 127.806 44.3965 127.786 44.5386 127.745 44.6581 127.713 44.7724 127.664 44.8783 127.6 44.969 127.543 45.0542 127.478 45.133 127.406 45.1915 127.347 45.2462 127.284 45.2968 127.218L45.2968 127.218 45.2968 127.715 45.964 127.715C45.9597 127.665 45.9597 127.614 45.964 127.564 45.9598 127.483 45.9598 127.402 45.964 127.321 45.964 127.224 45.964 127.103 45.964 126.957L45.964 125.362C45.9753 125.059 45.9215 124.757 45.8063 124.476 45.7059 124.245 45.5278 124.056 45.3029 123.943 45.0251 123.81 44.7189 123.747 44.4113 123.761 44.1791 123.763 43.9484 123.798 43.7259 123.864 43.5132 123.924 43.3093 124.012 43.1194 124.125L43.1558 124.731 43.1315 124.719ZM45.2058 126.205C45.2081 126.384 45.1664 126.561 45.0845 126.72 44.9989 126.873 44.873 126.999 44.7206 127.084 44.5334 127.181 44.3244 127.227 44.1141 127.218 44.0273 127.219 43.9411 127.204 43.8593 127.175 43.7774 127.148 43.6998 127.109 43.6289 127.06 43.564 127.009 43.5104 126.945 43.4712 126.872 43.4265 126.788 43.4036 126.694 43.4044 126.599 43.4004 126.48 43.4367 126.362 43.5075 126.266 43.5746 126.174 43.6618 126.1 43.7623 126.047 43.8716 125.992 43.9879 125.951 44.108 125.926 44.2213 125.897 44.337 125.879 44.4537 125.871 44.5507 125.866 44.6479 125.866 44.7449 125.871L44.9693 125.871 45.1998 125.871 45.1998 126.211 45.2058 126.205Z" fill="#000000"/><path d="M47.0742 127.715 47.7899 127.715 47.7899 125.931C47.7841 125.647 47.8272 125.364 47.9173 125.094 47.9871 124.885 48.113 124.698 48.2812 124.555 48.4374 124.424 48.6358 124.355 48.8392 124.361 48.9038 124.355 48.9687 124.355 49.0333 124.361 49.1015 124.373 49.1684 124.391 49.2335 124.415L49.2335 123.809 49.094 123.778 48.9423 123.778 48.7664 123.778C48.6263 123.782 48.4882 123.813 48.3601 123.869 48.2315 123.929 48.1145 124.011 48.0143 124.112 47.9069 124.213 47.8204 124.335 47.7596 124.47L47.7596 124.47 47.7596 123.863 47.0924 123.863 47.0924 127.727 47.0742 127.715Z" fill="#000000"/><path d="M50.0625 127.709 50.7782 127.709 50.7782 122.038 50.0625 122.038 50.0625 127.709Z" fill="#000000"/><path d="M51.7061 127.594C51.8682 127.677 52.0421 127.734 52.2217 127.764 52.4021 127.793 52.5847 127.807 52.7675 127.806 52.938 127.807 53.1076 127.782 53.2709 127.734 53.4262 127.687 53.572 127.613 53.7016 127.515 53.828 127.414 53.9297 127.286 53.9988 127.139 54.0801 126.971 54.1197 126.786 54.114 126.599 54.1187 126.447 54.0876 126.295 54.023 126.157 53.9651 126.036 53.8825 125.928 53.7804 125.841 53.6806 125.758 53.573 125.685 53.459 125.623L53.1011 125.453C52.9886 125.408 52.8792 125.355 52.7736 125.295 52.6818 125.243 52.6014 125.173 52.5371 125.089 52.4765 125.009 52.4426 124.911 52.44 124.81 52.4413 124.713 52.4755 124.619 52.5371 124.543 52.6045 124.471 52.6905 124.418 52.7857 124.392 52.8949 124.354 53.0099 124.335 53.1254 124.337L53.2891 124.337 53.5014 124.38 53.7137 124.446C53.7693 124.463 53.8224 124.488 53.8714 124.519L53.9321 123.913C53.7926 123.87 53.6531 123.84 53.5136 123.809 53.3595 123.78 53.2033 123.764 53.0465 123.761 52.8656 123.759 52.6854 123.785 52.5128 123.84 52.3555 123.881 52.2088 123.956 52.0822 124.058 51.9547 124.154 51.8544 124.282 51.791 124.428 51.7196 124.593 51.6845 124.77 51.6879 124.95 51.6835 125.089 51.7148 125.227 51.7789 125.35 51.8385 125.463 51.9188 125.564 52.0154 125.647 52.1198 125.727 52.2292 125.8 52.343 125.866L52.7008 126.041 53.0283 126.217C53.1173 126.271 53.1971 126.339 53.2649 126.417 53.3262 126.49 53.3585 126.583 53.3559 126.678 53.359 126.765 53.3386 126.85 53.297 126.926 53.2553 127.002 53.1939 127.065 53.1193 127.109 53.0458 127.152 52.9659 127.182 52.8828 127.2 52.8003 127.211 52.7166 127.211 52.6341 127.2 52.5473 127.207 52.4601 127.207 52.3733 127.2 52.2636 127.179 52.156 127.149 52.0518 127.109 51.9456 127.069 51.8439 127.019 51.7486 126.957L51.7061 127.564 51.7061 127.594Z" fill="#000000"/><path d="M54.9336 127.715 55.6432 127.715 55.6432 125.931C55.6422 125.647 55.6873 125.364 55.7767 125.094 55.8436 124.883 55.9699 124.696 56.1406 124.555 56.2968 124.424 56.4952 124.355 56.6986 124.361 56.7632 124.355 56.8281 124.355 56.8927 124.361 56.9608 124.373 57.0278 124.391 57.0928 124.415L57.0928 123.809 56.9533 123.778 56.8017 123.778 56.6197 123.778C56.4817 123.782 56.3457 123.813 56.2194 123.869 56.0901 123.931 55.9713 124.013 55.8676 124.112 55.764 124.217 55.678 124.338 55.6129 124.47L55.6129 124.47 55.6129 123.863 54.9336 123.863 54.9336 127.727 54.9336 127.715Z" fill="#000000"/><path d="M61.2472 123.852 60.5376 123.852 60.5376 125.671C60.5334 125.878 60.5049 126.084 60.4527 126.284 60.4156 126.464 60.3435 126.635 60.2404 126.787 60.1468 126.924 60.022 127.036 59.8765 127.115 59.713 127.197 59.5316 127.236 59.3488 127.23 59.172 127.227 59.0012 127.165 58.8636 127.054 58.741 126.93 58.6604 126.771 58.6331 126.599 58.5736 126.355 58.5491 126.104 58.5603 125.853L58.5603 123.852 57.8325 123.852 57.8325 126.15C57.8266 126.452 57.878 126.753 57.9841 127.036 58.0775 127.273 58.2457 127.473 58.4633 127.606 58.7118 127.749 58.9957 127.818 59.2821 127.806 59.4574 127.806 59.6314 127.777 59.7976 127.721 59.9591 127.669 60.1093 127.586 60.2404 127.479 60.3689 127.378 60.4726 127.249 60.5437 127.103L60.5437 127.103 60.5437 127.709 61.229 127.709 61.229 123.852 61.2472 123.852Z" fill="#000000"/><path d="M62.4141 127.715 63.1298 127.715 63.1298 125.932C63.1287 125.716 63.1511 125.5 63.1965 125.289 63.24 125.111 63.3117 124.941 63.4088 124.786 63.5032 124.648 63.6303 124.535 63.7787 124.458 63.9423 124.383 64.1202 124.343 64.3004 124.343 64.479 124.346 64.6517 124.408 64.7917 124.519 64.9209 124.641 65.0098 124.8 65.0464 124.974 65.0996 125.219 65.124 125.469 65.1192 125.72L65.1192 127.721 65.8288 127.721 65.8288 125.423C65.8407 125.118 65.789 124.814 65.6772 124.531 65.5828 124.296 65.4174 124.097 65.2041 123.961 64.9534 123.823 64.671 123.754 64.3853 123.761 64.1329 123.761 63.8841 123.82 63.6574 123.93 63.4464 124.039 63.2684 124.203 63.1419 124.404L63.1419 124.404 63.1419 122.038 62.4141 122.038 62.4141 127.715Z" fill="#000000"/><path d="M69.9573 126.842C69.8966 126.889 69.8316 126.929 69.7632 126.963 69.6693 127.013 69.572 127.055 69.4721 127.091 69.3599 127.133 69.2442 127.166 69.1263 127.188 69.0092 127.216 68.8891 127.231 68.7685 127.23 68.6024 127.231 68.4377 127.2 68.2833 127.139 68.1332 127.075 67.9956 126.985 67.8769 126.872 67.7583 126.756 67.6635 126.618 67.5979 126.466 67.5289 126.301 67.4938 126.123 67.4948 125.944L70.2484 125.944C70.2537 125.653 70.2231 125.361 70.1574 125.077 70.1071 124.832 70.0126 124.597 69.8784 124.386 69.7447 124.191 69.5629 124.034 69.3508 123.931 69.0977 123.815 68.8222 123.757 68.5441 123.761 68.2883 123.76 68.0347 123.809 67.798 123.906 67.5813 124 67.3869 124.138 67.2279 124.313 67.0664 124.488 66.9425 124.694 66.864 124.919 66.7774 125.171 66.7323 125.435 66.7306 125.702 66.7283 125.993 66.7692 126.284 66.8519 126.563 66.9238 126.805 67.048 127.029 67.2158 127.218 67.3812 127.406 67.5892 127.551 67.8223 127.643 68.1069 127.751 68.4097 127.802 68.7139 127.794 68.8947 127.794 69.0752 127.78 69.2537 127.752 69.3828 127.727 69.5104 127.694 69.6358 127.655L69.933 127.546 69.933 126.842 69.9573 126.842ZM67.4948 125.411C67.5092 125.283 67.5377 125.156 67.5797 125.035 67.625 124.909 67.6906 124.793 67.7738 124.689 67.8568 124.582 67.9625 124.495 68.0831 124.434 68.2244 124.371 68.3772 124.338 68.5319 124.337 68.6717 124.338 68.8098 124.367 68.9383 124.422 69.056 124.474 69.1599 124.553 69.2416 124.652 69.3276 124.753 69.3917 124.871 69.4296 124.998 69.4739 125.131 69.4964 125.27 69.4963 125.411L67.4948 125.411Z" fill="#000000"/><path d="M71.1602 127.715 71.8759 127.715 71.8759 125.932C71.8649 125.658 71.8998 125.383 71.979 125.12 72.0505 124.909 72.1785 124.722 72.3489 124.58 72.5022 124.448 72.6991 124.379 72.9009 124.386 72.9655 124.38 73.0304 124.38 73.095 124.386 73.1631 124.398 73.2301 124.416 73.2951 124.44L73.2951 123.834 73.192 123.785 73.0465 123.785 72.8645 123.785C72.7244 123.789 72.5863 123.819 72.4581 123.876 72.3296 123.936 72.2126 124.018 72.1124 124.119 72.005 124.22 71.9184 124.342 71.8577 124.477L71.8577 124.477 71.8577 123.87 71.1905 123.87 71.1905 127.734 71.1602 127.715Z" fill="#000000"/><path d="M76.2344 127.709 76.9865 127.709 76.9865 122.426 76.2344 122.426 76.2344 127.709Z" fill="#000000"/><path d="M78.2227 127.715 78.9323 127.715 78.9323 125.931C78.9301 125.715 78.9545 125.499 79.0051 125.288 79.0433 125.109 79.1153 124.938 79.2174 124.785 79.311 124.649 79.4357 124.536 79.5813 124.458 79.7471 124.383 79.9269 124.343 80.109 124.342 80.286 124.344 80.4572 124.406 80.5942 124.518 80.7257 124.639 80.815 124.798 80.8489 124.973 80.9074 125.217 80.9339 125.468 80.9278 125.719L80.9278 127.721 81.6374 127.721 81.6374 125.422C81.6462 125.118 81.5947 124.815 81.4858 124.53 81.3914 124.296 81.226 124.096 81.0127 123.96 80.7595 123.824 80.4754 123.755 80.1878 123.76 80.0125 123.761 79.8385 123.789 79.6723 123.845 79.5194 123.911 79.3782 124.001 79.2537 124.112 79.127 124.214 79.0236 124.342 78.9505 124.488L78.9505 124.488 78.9505 123.881 78.2227 123.881 78.2227 127.745 78.2227 127.715Z" fill="#000000"/><path d="M82.4817 127.594C82.6435 127.678 82.8175 127.735 82.9973 127.764 83.1757 127.793 83.3562 127.808 83.5371 127.806 83.7076 127.807 83.8772 127.783 84.0405 127.734 84.1958 127.687 84.3415 127.613 84.4711 127.515 84.5976 127.413 84.701 127.285 84.7744 127.139 84.8517 126.97 84.889 126.785 84.8835 126.599 84.8883 126.447 84.8571 126.295 84.7926 126.157 84.7349 126.037 84.6545 125.93 84.556 125.841 84.4541 125.758 84.3444 125.685 84.2285 125.623L83.8707 125.453C83.7554 125.405 83.6462 125.35 83.5431 125.295 83.4526 125.241 83.3724 125.172 83.3066 125.089 83.2454 125.009 83.2133 124.911 83.2156 124.81 83.212 124.713 83.2444 124.618 83.3066 124.543 83.3759 124.473 83.4613 124.421 83.5553 124.392 83.6646 124.354 83.7794 124.336 83.8949 124.337L84.0587 124.337 84.271 124.38C84.3431 124.397 84.414 124.42 84.4832 124.446 84.5408 124.463 84.5958 124.488 84.647 124.519L84.7077 123.913C84.5682 123.87 84.4226 123.84 84.2831 123.809 84.1291 123.78 83.9728 123.764 83.8161 123.761 83.6351 123.759 83.4549 123.785 83.2823 123.84 83.125 123.881 82.9783 123.956 82.8517 124.058 82.7277 124.158 82.6281 124.284 82.5606 124.428 82.4892 124.593 82.454 124.77 82.4574 124.95 82.453 125.089 82.4843 125.227 82.5484 125.35 82.6083 125.464 82.6908 125.566 82.791 125.647 82.8923 125.728 82.9998 125.801 83.1125 125.866L83.4703 126.041C83.5916 126.102 83.7008 126.157 83.7979 126.217 83.888 126.269 83.9681 126.337 84.0344 126.417 84.0947 126.491 84.1289 126.583 84.1315 126.678 84.1315 126.77 84.1063 126.86 84.0587 126.939 84.0183 127.01 83.9596 127.069 83.8888 127.109 83.8153 127.152 83.7355 127.182 83.6523 127.2 83.5698 127.211 83.4861 127.211 83.4036 127.2 83.3168 127.207 83.2296 127.207 83.1428 127.2 83.0349 127.18 82.9293 127.15 82.8274 127.109 82.7198 127.068 82.6162 127.017 82.5181 126.957L82.4817 127.564 82.4817 127.594Z" fill="#000000"/><path d="M87.7483 123.851 86.7354 123.851 86.7354 122.735 86.0257 122.96 86.0257 123.851 85.1523 123.851 85.1523 124.458 86.0257 124.458 86.0257 126.714C86.0172 126.936 86.0674 127.155 86.1713 127.351 86.2648 127.512 86.4071 127.64 86.5777 127.715 86.779 127.8 86.9961 127.841 87.2145 127.836 87.3247 127.837 87.4347 127.825 87.5421 127.8L87.8211 127.727 87.8211 127.121C87.7578 127.158 87.6907 127.188 87.6209 127.212 87.5291 127.242 87.4326 127.257 87.3358 127.254 87.2296 127.255 87.125 127.228 87.0326 127.175 86.9413 127.12 86.8676 127.04 86.8203 126.945 86.761 126.826 86.7319 126.695 86.7354 126.563L86.7354 124.428 87.7483 124.428 87.7483 123.821 87.7483 123.851Z" fill="#000000"/><path d="M88.7009 127.715 89.4105 127.715 89.4105 123.851 88.7009 123.851 88.7009 127.715ZM89.453 122.189 88.6523 122.189 88.6523 122.99 89.453 122.99 89.453 122.189Z" fill="#000000"/><path d="M92.7153 123.851 91.6963 123.851 91.6963 122.735 90.9867 122.96 90.9867 123.851 90.1133 123.851 90.1133 124.458 90.9867 124.458 90.9867 126.714C90.9782 126.936 91.0284 127.155 91.1322 127.351 91.224 127.514 91.3668 127.642 91.5386 127.715 91.7306 127.796 91.9369 127.837 92.1451 127.836 92.2553 127.836 92.3652 127.824 92.4727 127.8L92.7456 127.727 92.7456 127.121C92.6023 127.211 92.4358 127.257 92.2665 127.254 92.1674 127.242 92.0732 127.205 91.9935 127.145 91.9008 127.092 91.8267 127.011 91.7812 126.914 91.722 126.796 91.6928 126.665 91.6963 126.532L91.6963 124.428 92.7153 124.428 92.7153 123.821 92.7153 123.851Z" fill="#000000"/><path d="M96.9777 123.852 96.2681 123.852 96.2681 125.671C96.2703 125.888 96.2458 126.104 96.1953 126.314 96.1582 126.494 96.0861 126.665 95.983 126.817 95.8928 126.953 95.7724 127.065 95.6312 127.145 95.4677 127.227 95.2863 127.267 95.1035 127.26 94.9269 127.256 94.7564 127.195 94.6183 127.084 94.4868 126.964 94.3975 126.804 94.3636 126.629 94.3041 126.385 94.2796 126.134 94.2908 125.883L94.2908 123.882 93.563 123.882 93.563 126.181C93.5571 126.483 93.6085 126.783 93.7146 127.066 93.8106 127.302 93.9782 127.501 94.1937 127.636 94.4423 127.779 94.7262 127.848 95.0126 127.836 95.1878 127.836 95.3619 127.807 95.5281 127.752 95.6896 127.699 95.8397 127.617 95.9709 127.509 96.0994 127.408 96.2031 127.28 96.2741 127.133L96.2741 127.739 96.9595 127.739 96.9595 123.852 96.9777 123.852Z" fill="#000000"/><path d="M100.198 123.851 99.1729 123.851 99.1729 122.735 98.4632 122.96 98.4632 123.851 97.5898 123.851 97.5898 124.458 98.4632 124.458 98.4632 126.714C98.4547 126.936 98.5049 127.155 98.6088 127.351 98.7023 127.512 98.8446 127.64 99.0152 127.715 99.2073 127.795 99.4135 127.836 99.6217 127.836 99.7319 127.837 99.8418 127.825 99.9492 127.8L100.228 127.727 100.228 127.121C100.165 127.158 100.098 127.188 100.028 127.212 99.9364 127.243 99.8398 127.257 99.743 127.254 99.6368 127.255 99.5322 127.228 99.4397 127.175 99.35 127.118 99.2768 127.039 99.2275 126.945 99.1682 126.826 99.1391 126.695 99.1425 126.563L99.1425 124.428 100.168 124.428 100.168 123.821 100.198 123.851Z" fill="#000000"/><path d="M103.613 127.715 104.323 127.715 104.323 124.428 105.336 124.428 105.336 123.821 104.311 123.821 104.311 123.409C104.301 123.288 104.301 123.166 104.311 123.045 104.321 122.943 104.352 122.843 104.402 122.754 104.45 122.67 104.522 122.603 104.608 122.56 104.725 122.512 104.851 122.489 104.978 122.493L105.16 122.493 105.318 122.529 105.318 121.923 105.093 121.923 104.838 121.923C104.619 121.916 104.4 121.953 104.195 122.032 104.035 122.096 103.896 122.206 103.795 122.347 103.698 122.494 103.632 122.659 103.601 122.833 103.56 123.044 103.542 123.26 103.547 123.475L103.547 123.827 102.637 123.827 102.637 124.434 103.547 124.434 103.547 127.721 103.613 127.715Z" fill="#000000"/><path d="M106.785 123.263 107.494 123.263 107.494 122.505 106.785 122.505 106.785 123.263ZM107.998 123.263 108.707 123.263 108.707 122.505 107.998 122.505 107.998 123.263ZM109.435 123.87 108.72 123.87 108.72 125.689C108.724 125.905 108.701 126.121 108.653 126.332 108.613 126.511 108.541 126.682 108.441 126.835 108.346 126.974 108.219 127.086 108.071 127.163 107.909 127.244 107.73 127.284 107.549 127.278 107.37 127.275 107.198 127.213 107.058 127.102 106.93 126.979 106.842 126.821 106.803 126.647 106.749 126.403 106.725 126.152 106.73 125.901L106.73 123.9 106.021 123.9 106.021 126.199C106.012 126.501 106.063 126.802 106.172 127.084 106.267 127.319 106.432 127.518 106.645 127.654 106.894 127.797 107.178 127.866 107.464 127.854 107.641 127.854 107.817 127.826 107.986 127.77 108.146 127.714 108.296 127.632 108.428 127.527 108.555 127.425 108.659 127.296 108.732 127.151L108.732 127.151 108.732 127.757 109.423 127.757 109.423 123.851 109.435 123.87Z" fill="#000000"/><path d="M110.633 127.715 111.342 127.715 111.342 125.931C111.341 125.647 111.386 125.364 111.476 125.094 111.543 124.883 111.669 124.696 111.84 124.555 111.996 124.424 112.194 124.355 112.398 124.361 112.462 124.355 112.527 124.355 112.592 124.361 112.66 124.373 112.727 124.391 112.792 124.415L112.792 123.809 112.646 123.778 112.501 123.778 112.319 123.778C112.181 123.782 112.045 123.813 111.919 123.869 111.789 123.931 111.671 124.013 111.567 124.112 111.463 124.217 111.377 124.338 111.312 124.47L111.312 123.863 110.645 123.863 110.645 127.727 110.633 127.715Z" fill="#000000"/><path d="M116.757 127.709 117.515 127.709 117.515 123.093 119.153 123.093 119.153 122.426 115.113 122.426 115.113 123.093 116.757 123.093 116.757 127.709Z" fill="#000000"/><path d="M122.199 126.842C122.142 126.89 122.079 126.931 122.011 126.963 121.918 127.013 121.82 127.055 121.72 127.091 121.608 127.133 121.492 127.166 121.375 127.188 121.255 127.217 121.133 127.231 121.011 127.23 120.847 127.231 120.684 127.2 120.531 127.139 120.381 127.076 120.243 126.986 120.125 126.872 120.005 126.757 119.91 126.619 119.846 126.466 119.777 126.301 119.742 126.123 119.743 125.944L122.497 125.944C122.498 125.653 122.469 125.363 122.412 125.077 122.362 124.83 122.265 124.596 122.127 124.386 121.995 124.191 121.815 124.035 121.605 123.931 121.35 123.815 121.072 123.757 120.792 123.761 120.538 123.76 120.287 123.809 120.052 123.907 119.835 123.998 119.64 124.137 119.482 124.313 119.317 124.486 119.191 124.693 119.112 124.919 119.025 125.171 118.982 125.436 118.985 125.702 118.98 125.994 119.021 126.284 119.106 126.563 119.178 126.805 119.302 127.029 119.47 127.218 119.634 127.407 119.843 127.553 120.077 127.643 120.359 127.751 120.66 127.802 120.962 127.794 121.277 127.8 121.591 127.753 121.89 127.655L122.181 127.546 122.181 126.842 122.199 126.842ZM119.743 125.411C119.757 125.283 119.786 125.157 119.828 125.035 119.871 124.908 119.937 124.791 120.022 124.689 120.105 124.582 120.211 124.495 120.331 124.434 120.472 124.37 120.625 124.337 120.78 124.337 120.92 124.338 121.058 124.367 121.187 124.422 121.303 124.476 121.407 124.554 121.49 124.653 121.574 124.755 121.637 124.872 121.678 124.998 121.72 125.132 121.74 125.271 121.738 125.411L119.743 125.411Z" fill="#000000"/><path d="M125.916 123.912 125.668 123.839C125.568 123.814 125.467 123.796 125.364 123.784 125.261 123.779 125.158 123.779 125.055 123.784 124.779 123.786 124.506 123.837 124.248 123.936 124.02 124.034 123.814 124.176 123.642 124.355 123.465 124.538 123.328 124.757 123.242 124.997 123.144 125.257 123.096 125.533 123.102 125.81 123.102 126.077 123.149 126.342 123.242 126.593 123.337 126.819 123.475 127.025 123.648 127.199 123.818 127.384 124.025 127.533 124.254 127.636 124.507 127.744 124.78 127.8 125.055 127.8L125.334 127.8C125.438 127.792 125.542 127.776 125.643 127.751 125.748 127.731 125.85 127.698 125.947 127.654L125.898 127.048C125.82 127.094 125.739 127.135 125.656 127.169 125.568 127.199 125.479 127.223 125.389 127.242 125.302 127.25 125.215 127.25 125.128 127.242 124.962 127.243 124.798 127.214 124.643 127.157 124.509 127.108 124.387 127.031 124.285 126.932 124.183 126.839 124.099 126.728 124.036 126.605 123.97 126.481 123.921 126.348 123.891 126.211 123.86 126.075 123.844 125.937 123.842 125.798 123.842 125.615 123.871 125.433 123.927 125.258 123.98 125.091 124.062 124.935 124.17 124.797 124.272 124.66 124.405 124.548 124.558 124.47 124.722 124.39 124.903 124.349 125.085 124.348 125.21 124.349 125.334 124.363 125.455 124.391 125.594 124.417 125.728 124.46 125.856 124.518L125.916 123.912 125.916 123.912Z" fill="#000000"/><path d="M126.723 127.715 127.432 127.715 127.432 125.932C127.431 125.716 127.454 125.5 127.499 125.289 127.542 125.11 127.616 124.939 127.717 124.786 127.809 124.648 127.935 124.535 128.081 124.458 128.247 124.382 128.427 124.343 128.609 124.343 128.786 124.347 128.956 124.409 129.094 124.519 129.226 124.639 129.315 124.799 129.349 124.974 129.405 125.218 129.43 125.469 129.422 125.72L129.422 127.721 130.137 127.721 130.137 125.422C130.144 125.118 130.091 124.815 129.98 124.531 129.889 124.294 129.722 124.094 129.507 123.961 129.268 123.839 129.004 123.776 128.736 123.776 128.469 123.776 128.205 123.839 127.966 123.961 127.754 124.068 127.576 124.232 127.45 124.434L127.45 124.434 127.45 122.068 126.741 122.068 126.741 127.745 126.723 127.715Z" fill="#000000"/><path d="M131.301 127.715 132.023 127.715 132.023 125.932C132.02 125.715 132.045 125.5 132.095 125.289 132.134 125.109 132.206 124.938 132.308 124.786 132.401 124.649 132.526 124.537 132.672 124.458 132.837 124.382 133.017 124.343 133.199 124.343 133.376 124.344 133.547 124.406 133.684 124.519 133.816 124.639 133.905 124.799 133.939 124.974 133.998 125.218 134.024 125.469 134.018 125.72L134.018 127.721 134.728 127.721 134.728 125.422C134.736 125.118 134.685 124.815 134.576 124.531 134.483 124.294 134.314 124.094 134.097 123.961 133.894 123.853 133.671 123.787 133.441 123.767 133.212 123.747 132.981 123.774 132.763 123.846 132.603 123.902 132.453 123.984 132.32 124.088 132.193 124.19 132.09 124.319 132.016 124.464L132.016 124.464 132.016 123.858 131.325 123.858 131.325 127.721 131.301 127.715Z" fill="#000000"/><path d="M135.625 125.787C135.625 126.054 135.672 126.318 135.764 126.569 135.86 126.795 135.998 127.001 136.171 127.175 136.341 127.361 136.548 127.509 136.777 127.612 137.03 127.72 137.303 127.776 137.578 127.776 137.851 127.777 138.122 127.721 138.373 127.612 138.604 127.512 138.811 127.363 138.979 127.175 139.152 127.001 139.29 126.795 139.385 126.569 139.477 126.318 139.526 126.054 139.531 125.787 139.532 125.509 139.483 125.234 139.385 124.974 139.299 124.735 139.165 124.516 138.991 124.331 138.818 124.154 138.612 124.012 138.385 123.912 138.13 123.813 137.858 123.761 137.584 123.761 137.308 123.762 137.035 123.813 136.777 123.912 136.551 124.013 136.345 124.155 136.171 124.331 135.995 124.516 135.859 124.735 135.771 124.974 135.676 125.234 135.628 125.509 135.631 125.787L135.625 125.787ZM136.383 125.787C136.381 125.604 136.408 125.421 136.462 125.247 136.515 125.081 136.595 124.925 136.699 124.786 136.801 124.645 136.935 124.532 137.09 124.453 137.245 124.375 137.417 124.335 137.59 124.337 137.767 124.338 137.941 124.379 138.1 124.458 138.246 124.54 138.374 124.652 138.476 124.786 138.579 124.925 138.659 125.081 138.712 125.247 138.768 125.421 138.797 125.603 138.797 125.787 138.796 125.925 138.779 126.064 138.749 126.199 138.72 126.336 138.673 126.469 138.609 126.593 138.548 126.714 138.469 126.825 138.373 126.921 138.278 127.018 138.164 127.094 138.039 127.145 137.896 127.203 137.744 127.232 137.59 127.23 137.437 127.23 137.284 127.202 137.141 127.145 137.015 127.093 136.899 127.017 136.802 126.921 136.706 126.825 136.626 126.714 136.565 126.593 136.504 126.468 136.457 126.335 136.426 126.199 136.397 126.063 136.383 125.925 136.383 125.787L136.383 125.787Z" fill="#000000"/><path d="M140.551 127.709 141.266 127.709 141.266 122.038 140.551 122.038 140.551 127.709Z" fill="#000000"/><path d="M142.266 125.787C142.266 126.054 142.313 126.318 142.405 126.569 142.501 126.795 142.639 127.001 142.812 127.175 142.982 127.361 143.188 127.509 143.418 127.612 143.671 127.72 143.944 127.776 144.219 127.776 144.492 127.777 144.763 127.721 145.013 127.612 145.245 127.512 145.452 127.363 145.62 127.175 145.792 127.001 145.93 126.795 146.026 126.569 146.119 126.318 146.166 126.054 146.166 125.787 146.171 125.509 146.124 125.233 146.026 124.974 145.939 124.734 145.803 124.515 145.626 124.331 145.454 124.152 145.247 124.01 145.019 123.912 144.764 123.813 144.493 123.761 144.219 123.761 143.943 123.762 143.67 123.813 143.412 123.912 143.185 124.011 142.979 124.154 142.806 124.331 142.628 124.515 142.492 124.734 142.405 124.974 142.31 125.234 142.263 125.509 142.266 125.787ZM143.018 125.787C143.018 125.603 143.047 125.421 143.103 125.247 143.156 125.081 143.236 124.925 143.339 124.786 143.441 124.65 143.572 124.538 143.721 124.458 143.88 124.379 144.054 124.338 144.231 124.337 144.408 124.338 144.582 124.38 144.74 124.458 144.887 124.54 145.015 124.652 145.116 124.786 145.22 124.925 145.3 125.081 145.353 125.247 145.409 125.421 145.438 125.603 145.438 125.787 145.436 125.925 145.42 126.064 145.389 126.199 145.361 126.336 145.314 126.469 145.25 126.593 145.189 126.714 145.109 126.825 145.013 126.921 144.919 127.018 144.805 127.094 144.68 127.145 144.391 127.26 144.07 127.26 143.782 127.145 143.655 127.094 143.539 127.018 143.442 126.921 143.346 126.825 143.267 126.714 143.206 126.593 143.144 126.468 143.098 126.335 143.066 126.199 143.036 126.064 143.019 125.925 143.018 125.787L143.018 125.787Z" fill="#000000"/><path d="M150.515 123.851 149.86 123.851 149.86 124.458C149.794 124.321 149.701 124.2 149.587 124.1 149.467 123.996 149.326 123.919 149.174 123.876 148.978 123.814 148.773 123.785 148.568 123.791 148.36 123.794 148.154 123.835 147.961 123.912 147.782 123.987 147.618 124.094 147.476 124.227 147.339 124.364 147.224 124.522 147.136 124.694 147.042 124.87 146.973 125.058 146.93 125.252 146.886 125.452 146.863 125.655 146.863 125.859 146.863 126.101 146.898 126.342 146.966 126.575 147.03 126.794 147.135 127 147.276 127.181 147.413 127.359 147.589 127.502 147.791 127.6 148.017 127.706 148.264 127.759 148.513 127.757 148.677 127.756 148.84 127.734 148.998 127.691 149.157 127.648 149.309 127.58 149.447 127.491 149.587 127.404 149.709 127.291 149.805 127.157L149.805 127.157 149.805 127.539C149.812 127.782 149.762 128.023 149.659 128.243 149.575 128.433 149.433 128.592 149.253 128.698 149.058 128.811 148.835 128.867 148.61 128.861 148.489 128.868 148.367 128.868 148.246 128.861 148.136 128.847 148.027 128.827 147.919 128.801L147.591 128.691 147.215 128.534 147.142 129.189C147.319 129.254 147.499 129.309 147.682 129.353 147.827 129.392 147.975 129.418 148.125 129.431 148.258 129.44 148.392 129.44 148.525 129.431 148.915 129.446 149.303 129.371 149.659 129.213 149.936 129.087 150.164 128.874 150.308 128.607 150.455 128.294 150.526 127.951 150.515 127.606L150.515 123.851 150.515 123.851ZM148.695 127.139C148.538 127.142 148.384 127.104 148.246 127.03 148.113 126.956 147.997 126.854 147.907 126.732 147.812 126.6 147.74 126.452 147.694 126.296 147.645 126.126 147.62 125.951 147.621 125.774 147.621 125.639 147.635 125.505 147.664 125.374 147.688 125.239 147.731 125.108 147.791 124.986 147.844 124.864 147.916 124.751 148.004 124.652 148.089 124.557 148.192 124.479 148.307 124.421 148.429 124.367 148.561 124.338 148.695 124.337 148.868 124.337 149.038 124.379 149.192 124.458 149.331 124.538 149.452 124.648 149.544 124.779 149.641 124.926 149.71 125.088 149.75 125.258 149.8 125.444 149.824 125.636 149.823 125.829 149.824 126.002 149.795 126.174 149.738 126.338 149.686 126.49 149.608 126.631 149.508 126.757 149.41 126.874 149.288 126.969 149.15 127.036 149.008 127.105 148.853 127.14 148.695 127.139Z" fill="#000000"/><path d="M151.779 127.715 152.489 127.715 152.489 123.851 151.779 123.851 151.779 127.715ZM152.531 122.189 151.73 122.189 151.73 122.99 152.531 122.99 152.531 122.189Z" fill="#000000"/><path d="M156.703 126.842C156.643 126.89 156.578 126.931 156.509 126.963 156.416 127.014 156.318 127.057 156.218 127.091 156.108 127.132 155.994 127.165 155.878 127.188 155.759 127.217 155.637 127.231 155.514 127.23 155.35 127.231 155.188 127.2 155.035 127.139 154.884 127.076 154.746 126.986 154.629 126.872 154.509 126.758 154.414 126.619 154.35 126.466 154.281 126.301 154.246 126.123 154.247 125.944L157 125.944C157.002 125.653 156.973 125.363 156.915 125.077 156.863 124.831 156.766 124.597 156.63 124.386 156.498 124.19 156.316 124.033 156.103 123.931 155.85 123.815 155.574 123.757 155.296 123.761 155.04 123.761 154.787 123.81 154.55 123.907 154.335 124 154.143 124.139 153.986 124.313 153.82 124.486 153.694 124.693 153.616 124.919 153.529 125.171 153.485 125.436 153.489 125.702 153.484 125.993 153.523 126.283 153.604 126.563 153.68 126.805 153.806 127.028 153.974 127.218 154.139 127.407 154.347 127.552 154.58 127.643 154.865 127.75 155.168 127.802 155.472 127.794 155.653 127.795 155.833 127.781 156.012 127.752 156.143 127.727 156.272 127.694 156.4 127.655L156.691 127.546 156.691 126.842 156.703 126.842ZM154.247 125.411C154.258 125.282 154.287 125.156 154.332 125.035 154.375 124.91 154.439 124.793 154.52 124.689 154.606 124.584 154.714 124.497 154.835 124.434 154.976 124.37 155.129 124.337 155.284 124.337 155.424 124.339 155.562 124.368 155.69 124.422 155.807 124.476 155.911 124.554 155.994 124.653 156.078 124.754 156.14 124.872 156.176 124.998 156.22 125.131 156.242 125.271 156.242 125.411L154.247 125.411Z" fill="#000000"/></g></svg>