<?xml version="1.0" encoding="UTF-8" standalone="no"?>
<svg
   width="698.16998"
   height="120.31"
   viewBox="0 0 698.16998 120.31"
   fill="none"
   overflow="hidden"
   version="1.1"
   id="svg17"
   sodipodi:docname="logo.svg"
   inkscape:version="1.3.2 (091e20ef0f, 2023-11-25)"
   xmlns:inkscape="http://www.inkscape.org/namespaces/inkscape"
   xmlns:sodipodi="http://sodipodi.sourceforge.net/DTD/sodipodi-0.dtd"
   xmlns="http://www.w3.org/2000/svg"
   xmlns:svg="http://www.w3.org/2000/svg">
  <sodipodi:namedview
     id="namedview17"
     pagecolor="#ffffff"
     bordercolor="#666666"
     borderopacity="1.0"
     inkscape:showpageshadow="2"
     inkscape:pageopacity="0.0"
     inkscape:pagecheckerboard="0"
     inkscape:deskcolor="#d1d1d1"
     inkscape:zoom="0.81759259"
     inkscape:cx="349.19592"
     inkscape:cy="60.543601"
     inkscape:window-width="1920"
     inkscape:window-height="1131"
     inkscape:window-x="0"
     inkscape:window-y="0"
     inkscape:window-maximized="1"
     inkscape:current-layer="svg17" />
  <defs
     id="defs9">
    <linearGradient
       x1="473.41"
       y1="481.36801"
       x2="560.82703"
       y2="623.19202"
       gradientUnits="userSpaceOnUse"
       id="paint0_linear_453_15702"
       gradientTransform="translate(-191,-480)">
      <stop
         offset="0.212289"
         stop-color="#42EAF0"
         id="stop1" />
      <stop
         offset="0.535219"
         stop-color="#0D7FF2"
         id="stop2" />
      <stop
         offset="0.795646"
         stop-color="#8C37E2"
         id="stop3" />
    </linearGradient>
    <linearGradient
       x1="473.41"
       y1="481.36801"
       x2="560.82703"
       y2="623.19202"
       gradientUnits="userSpaceOnUse"
       id="paint1_linear_453_15702"
       gradientTransform="translate(-191,-480)">
      <stop
         offset="0.212289"
         stop-color="#42EAF0"
         id="stop4" />
      <stop
         offset="0.535219"
         stop-color="#0D7FF2"
         id="stop5" />
      <stop
         offset="0.795646"
         stop-color="#8C37E2"
         id="stop6" />
    </linearGradient>
    <linearGradient
       x1="473.41"
       y1="481.36801"
       x2="560.82703"
       y2="623.19202"
       gradientUnits="userSpaceOnUse"
       id="paint2_linear_453_15702"
       gradientTransform="translate(-191,-480)">
      <stop
         offset="0.212289"
         stop-color="#42EAF0"
         id="stop7" />
      <stop
         offset="0.535219"
         stop-color="#0D7FF2"
         id="stop8" />
      <stop
         offset="0.795646"
         stop-color="#8C37E2"
         id="stop9" />
    </linearGradient>
  </defs>
  <path
     d="m 48.66,120.31 c 25.16,0 42.82,-13 42.82,-36.16 V 83.82 C 91.48,63.49 78.15,54.99 54.49,48.83 34.33,43.66 29.33,41.17 29.33,33.5 v -0.33 c 0,-5.67 5.17,-10.16 15,-10.16 8,0 16,2.83 24.49,7.83 2,1.17 4,1.83 6.5,1.83 6.67,0 12,-5.17 12,-11.83 0,-5 -2.83,-8.5 -5.67,-10.16 C 71.15,4 58.82,0.34 44.66,0.34 20.83,0.34 3.84,14.34 3.84,35.5 v 0.33 c 0,23.16 15.16,29.66 38.66,35.66 19.5,5 23.49,8.33 23.49,14.83 v 0.33 c 0,6.83 -6.33,11 -16.83,11 -11.33,0 -20.99,-4 -29.83,-10.5 -1.67,-1.17 -4,-2.33 -7.33,-2.33 -6.67,0 -12,5.17 -12,11.83 0,4 2,7.67 4.83,9.66 13,9.33 28.5,14 43.83,14 z"
     fill="#2c3035"
     id="path9" />
  <path
     d="m 150.782,120.31 c 26.94,0 46.94,-20.16 46.94,-45 v -0.32 c 0,-24.84 -19.84,-44.68 -46.61,-44.68 -26.94,0 -46.94,20.16 -46.94,45 v 0.32 c -0.01,24.84 19.83,44.68 46.61,44.68 z m 0.32,-21.13 c -13.55,0 -22.74,-11.13 -22.74,-23.87 v -0.32 c 0,-12.74 8.39,-23.55 22.42,-23.55 13.55,0 22.74,11.13 22.74,23.87 v 0.32 c 0,12.75 -8.39,23.55 -22.42,23.55 z"
     fill="#2c3035"
     id="path10" />
  <path
     d="m 218.138,108.04 c 0,6.78 5.49,12.27 12.27,12.27 6.78,0 12.27,-5.49 12.27,-12.27 V 53.77 h 10.34 c 5.65,0 10.18,-4.36 10.18,-10.01 0,-5.65 -4.52,-10.01 -10.18,-10.01 h -10.66 v -3.39 c 0,-6.46 3.23,-9.37 8.88,-9.37 h 2.1 c 5.49,0 10.01,-4.68 10.01,-10.17 0,-5.49 -4.2,-9.21 -8.4,-9.85 -2.75,-0.48 -6.14,-0.65 -10.01,-0.65 -8.72,0 -15.34,2.26 -19.87,6.78 -4.52,4.52 -6.94,11.47 -6.94,21 v 5.49 h -0.97 c -5.65,0 -10.17,4.52 -10.17,10.17 0,5.65 4.52,10.01 10.17,10.01 h 0.97 v 54.27 z"
     fill="#2c3035"
     id="path11" />
  <path
     d="m 486.49,120 c 18.56,0 30.83,-5.47 41.27,-14.59 2.32,-1.99 4.31,-5.14 4.31,-9.12 0,-6.46 -5.47,-11.77 -11.93,-11.77 -2.98,0 -5.64,1.16 -7.62,2.82 -7.29,5.8 -14.42,9.12 -25.19,9.12 -19.89,0 -33.65,-16.57 -33.65,-36.46 v -0.33 c 0,-19.89 14.09,-36.13 33.65,-36.13 9.12,0 16.57,2.98 23.7,8.29 1.82,1.16 4.14,2.49 7.62,2.49 6.96,0 12.6,-5.47 12.6,-12.43 0,-4.48 -2.32,-8.12 -4.97,-10.11 C 516.65,4.64 504.88,0 487.48,0 c -35.63,0 -60.5,27.02 -60.5,60 v 0.33 c 0,33.32 25.36,59.67 59.51,59.67 z"
     fill="#2c3035"
     id="path12" />
  <path
     d="m 573.291,120 c 12.01,0 20.29,-4.38 26.29,-11.04 v 0.16 c 0,5.19 4.71,10.22 11.85,10.22 6.65,0 12.01,-5.19 12.01,-11.85 V 67.9 c 0,-11.68 -2.92,-21.26 -9.41,-27.75 -6.17,-6.17 -15.9,-9.74 -29.37,-9.74 -11.52,0 -19.96,1.62 -27.75,4.54 -3.9,1.46 -6.65,5.19 -6.65,9.58 0,5.68 4.54,10.06 10.22,10.06 1.14,0 2.11,-0.16 3.57,-0.65 4.71,-1.46 10.22,-2.43 17.04,-2.43 12.33,0 18.66,5.68 18.66,15.9 v 1.46 c -6.17,-2.11 -12.5,-3.57 -21.26,-3.57 -20.61,0 -35.05,8.76 -35.05,27.75 v 0.32 c -0.01,17.22 13.46,26.63 29.85,26.63 z m 7.47,-17.04 c -7.95,0 -13.47,-3.89 -13.47,-10.55 v -0.32 c 0,-7.79 6.49,-12.01 17.04,-12.01 6,0 11.52,1.3 15.74,3.25 v 4.38 c 0,8.92 -7.79,15.25 -19.31,15.25 z"
     fill="#2c3035"
     id="path13" />
  <path
     d="m 644.32,107.56 c 0,6.87 5.56,12.44 12.44,12.44 6.87,0 12.44,-5.56 12.44,-12.44 V 84.32 c 0,-17.68 7.04,-27.33 19.64,-30.28 5.07,-1.15 9.33,-5.07 9.33,-11.62 0,-7.04 -4.42,-12.11 -12.11,-12.11 -7.37,0 -13.26,7.86 -16.86,16.37 v -3.93 c 0,-6.87 -5.56,-12.44 -12.44,-12.44 -6.87,0 -12.44,5.56 -12.44,12.44 z"
     fill="#2c3035"
     id="path14" />
  <path
     d="m 346.95,0.31 h -64.54 c 0,17.65 14.44,32.09 32.09,32.09 h 85.52 C 391.75,16.78 376.78,5.2 359.01,1.53 357.49,1.22 355.96,0.96 354.4,0.77 351.96,0.47 349.47,0.31 346.95,0.31 Z"
     fill="url(#paint0_linear_453_15702)"
     fill-rule="evenodd"
     clip-rule="evenodd"
     id="path15"
     style="fill:url(#paint0_linear_453_15702)" />
  <path
     d="m 346.95,120.31 h -64.54 c 0,-17.65 14.44,-32.09 32.09,-32.09 h 85.52 c -8.27,15.61 -23.24,27.2 -41.01,30.86 -1.52,0.32 -3.05,0.57 -4.61,0.76 -2.44,0.31 -4.93,0.47 -7.45,0.47 z"
     fill="url(#paint1_linear_453_15702)"
     fill-rule="evenodd"
     clip-rule="evenodd"
     id="path16"
     style="fill:url(#paint1_linear_453_15702)" />
  <path
     d="m 404.76,44.27 h -82.93 c 2.86,4.67 4.52,10.16 4.52,16.05 0,5.89 -1.65,11.37 -4.52,16.05 h 82.93 c 1.43,-5.11 2.19,-10.49 2.19,-16.05 0,-5.56 -0.76,-10.94 -2.19,-16.05 z"
     fill="url(#paint2_linear_453_15702)"
     fill-rule="evenodd"
     clip-rule="evenodd"
     id="path17"
     style="fill:url(#paint2_linear_453_15702)" />
</svg>
