<svg width="200" height="200" viewBox="0 0 200 200" xmlns="http://www.w3.org/2000/svg" xmlns:xlink="http://www.w3.org/1999/xlink" fill="none" overflow="hidden"><rect x="0" y="0" rx="36" width="200" height="200" fill="#FFFFFF"/><path d="M64.8543 141.312C64.8543 141.921 64.8183 143.762 67.1495 143.762 68.6242 143.762 69.5512 143.047 69.5512 141.957 69.5512 140.814 68.7619 140.618 67.1495 140.224 64.1338 139.456 62.4878 138.544 62.4878 136.309 62.4878 134.183 63.9793 132.308 67.4994 132.308 68.8155 132.308 70.3734 132.611 71.3181 133.824 72.037 134.754 72.037 135.79 72.037 136.221L69.4272 136.221C69.3927 135.776 69.251 134.256 67.3761 134.256 66.116 134.256 65.293 134.954 65.293 136.009 65.293 137.208 66.2201 137.42 68.0422 137.887 70.2325 138.42 72.3893 139.027 72.3893 141.549 72.3893 143.872 70.4951 145.751 66.9934 145.751 62.138 145.751 62.1036 142.568 62.0859 141.314L64.8559 141.314 64.8543 141.312ZM79.5007 145.318C78.6625 145.549 77.9076 145.604 77.4873 145.604 74.875 145.604 74.875 143.924 74.875 143.172L74.875 138.221 73.1762 138.221 73.1762 136.47 74.875 136.47 74.875 134.696 77.4529 133.733 77.4529 136.47 79.5536 136.47 79.5536 138.221 77.4529 138.221 77.4529 142.296C77.4689 143.118 77.4689 143.639 78.6257 143.639 79.01 143.639 79.1877 143.62 79.5023 143.584L79.5023 145.317 79.5007 145.318ZM83.3907 136.416 83.3907 141.798C83.3907 142.584 83.3907 143.783 84.7725 143.783 86.4393 143.783 86.4393 142.511 86.4393 140.975L86.4393 136.416 89.1036 136.416 89.1036 142.37C89.138 144.317 89.1556 144.55 89.1556 144.782 89.1732 145.033 89.1916 145.194 89.2252 145.444L86.7018 145.444 86.6162 144.246C86.3544 144.638 85.6875 145.676 84.0047 145.676 82.8135 145.676 81.8352 145.12 81.3412 144.462 80.7648 143.727 80.7648 142.476 80.7648 142.031L80.7648 136.416 83.3907 136.416 83.3907 136.416ZM96.757 145.318C95.9188 145.549 95.1639 145.604 94.746 145.604 92.1337 145.604 92.1337 143.924 92.1337 143.172L92.1337 138.221 90.4325 138.221 90.4325 136.47 92.1337 136.47 92.1337 134.696 94.7067 133.733 94.7067 136.47 96.8122 136.47 96.8122 138.221 94.7075 138.221 94.7075 142.296C94.7292 143.118 94.7292 143.639 95.8844 143.639 96.2686 143.639 96.4448 143.62 96.7586 143.584L96.7586 145.317 96.757 145.318ZM103.744 145.318C102.902 145.549 102.15 145.604 101.727 145.604 99.1171 145.604 99.1171 143.924 99.1171 143.172L99.1171 138.221 97.4199 138.221 97.4199 136.47 99.1171 136.47 99.1171 134.696 101.695 133.733 101.695 136.47 103.796 136.47 103.796 138.221 101.695 138.221 101.695 142.296C101.711 143.118 101.711 143.639 102.868 143.639 103.252 143.639 103.428 143.62 103.744 143.584L103.744 145.317 103.744 145.318ZM113.747 136.452C113.679 137.165 113.625 137.775 113.625 138.686L113.625 145.354C113.625 148.681 110.909 149 109.211 149 107.949 149 105.481 148.839 105.321 146.107L107.809 146.107C107.842 146.373 107.967 147.354 109.348 147.354 110.121 147.354 110.787 146.978 110.964 146.176 111.068 145.73 111.068 145.41 111.086 144.031 110.261 145.14 109.334 145.264 108.703 145.264 106.162 145.264 104.97 143.012 104.97 140.832 104.97 138.545 106.214 136.362 108.755 136.362 110.367 136.362 110.963 137.255 111.226 137.649L111.312 136.452 113.746 136.454 113.747 136.452ZM109.296 143.459C111.118 143.459 111.118 141.279 111.118 140.887 111.118 139.866 110.925 138.131 109.348 138.131 108.367 138.131 107.563 138.899 107.563 140.833 107.563 141.279 107.563 143.458 109.296 143.458L109.296 143.459ZM121.02 145.443C120.933 144.887 120.933 144.477 120.933 144.211 119.951 145.657 118.777 145.657 118.284 145.657 117.007 145.657 116.429 145.283 116.076 144.941 115.55 144.406 115.305 143.674 115.305 142.959 115.305 142.241 115.55 140.921 117.184 140.152 118.269 139.65 119.827 139.65 120.687 139.65 120.687 139.061 120.671 138.776 120.565 138.455 120.339 137.791 119.652 137.702 119.408 137.702 119.038 137.702 118.656 137.865 118.428 138.205 118.232 138.507 118.232 138.794 118.232 139.008L115.693 139.008C115.709 138.522 115.763 137.56 116.69 136.88 117.497 136.29 118.532 136.148 119.372 136.148 120.109 136.148 121.652 136.273 122.525 137.311 123.124 138.046 123.141 139.116 123.141 139.529L123.159 143.156C123.159 143.924 123.212 144.693 123.372 145.444L121.018 145.444 121.02 145.443ZM117.83 142.654C117.83 143.261 118.231 143.943 119.092 143.943 119.562 143.943 119.949 143.708 120.194 143.422 120.648 142.852 120.685 142.152 120.685 141.188 119.022 141.045 117.83 141.582 117.83 142.654L117.83 142.654ZM125.453 138.633C125.453 138.206 125.382 136.9 125.329 136.382L127.765 136.382 127.816 138.116C128.148 137.345 128.729 136.363 130.832 136.471L130.832 138.221C128.203 137.97 128.046 139.866 128.046 140.994L128.046 145.442 125.453 145.442 125.452 138.633 125.453 138.633ZM137.862 145.318C137.022 145.549 136.266 145.604 135.846 145.604 133.233 145.604 133.233 143.924 133.233 143.172L133.233 138.221 131.536 138.221 131.536 136.47 133.233 136.47 133.233 134.696 135.811 133.733 135.811 136.47 137.917 136.47 137.917 138.221 135.811 138.221 135.811 142.296C135.827 143.118 135.827 143.639 136.986 143.639 137.37 143.639 137.548 143.62 137.862 143.584L137.862 145.317 137.862 145.318Z" fill="#00111A"/><path d="M57.7139 114.85 57.7139 122.714C57.7139 124.127 57.8204 125.897 60.4679 125.897 60.9058 125.897 62.2187 125.879 62.9192 124.771 63.1818 124.378 63.3227 123.878 63.3227 122.574L63.3227 114.85 65.9678 114.85 65.9678 122.915C65.9678 126.757 62.9713 127.99 60.4118 127.99 59.1518 127.99 56.8413 127.704 55.6485 125.754 55.0344 124.77 55 123.772 55 122.572L55 114.85 57.7139 114.85ZM68.0685 120.321C68.0685 120.285 68.0685 119.303 68.0173 118.676L70.5038 118.676 70.5743 120.035C70.8225 119.625 71.5221 118.459 73.4483 118.459 75.1856 118.459 75.9197 119.532 76.1462 120.158 76.3384 120.713 76.392 121.179 76.392 122.859L76.392 127.738 73.7461 127.738 73.7461 122.128C73.7461 121.752 73.7461 121.427 73.6068 121.141 73.4147 120.749 73.0128 120.374 72.3451 120.374 71.7871 120.374 71.2772 120.643 70.997 121.071 70.8385 121.306 70.6816 121.752 70.6816 122.451L70.6816 127.74 68.0693 127.74 68.0693 120.323 68.0685 120.321ZM78.7313 118.693 81.3251 118.693 81.3251 127.737 78.7313 127.737 78.7313 118.693ZM85.3624 118.712 87.3614 124.841 89.3933 118.712 91.899 118.712 88.7104 127.737 85.8379 127.737 82.594 118.712 85.3624 118.712 85.3624 118.712ZM95.0869 123.895C95.0869 124.483 95.0869 126.308 96.8914 126.308 97.5399 126.308 98.1883 126.057 98.4341 125.056L100.8 125.056C100.764 125.486 100.676 126.254 99.9576 127.021 99.3075 127.719 98.1539 128.076 96.8578 128.076 96.1036 128.076 94.6642 127.935 93.7371 126.952 92.9318 126.093 92.5979 124.879 92.5979 123.43 92.5979 121.964 92.9502 120.213 94.4368 119.159 95.1205 118.694 95.9611 118.406 96.9242 118.406 98.1867 118.406 99.691 118.908 100.499 120.587 101.094 121.822 101.062 123.146 101.025 123.896L95.0845 123.896 95.0869 123.895ZM98.3812 122.233C98.3812 121.821 98.3468 120.212 96.8394 120.212 95.7009 120.212 95.227 121.179 95.1742 122.233L98.3812 122.233ZM102.741 120.928C102.741 120.501 102.673 119.194 102.621 118.676L105.059 118.676 105.107 120.41C105.445 119.639 106.022 118.551 108.123 118.658L108.123 121.034C105.498 120.784 105.337 122.161 105.337 123.288L105.337 127.737 102.744 127.737 102.744 120.927 102.74 120.927 102.741 120.928ZM111.364 125.128C111.399 125.702 111.748 126.361 112.835 126.361 113.763 126.361 114.201 125.827 114.201 125.289 114.201 124.881 113.99 124.559 112.976 124.274L111.363 123.825C110.643 123.609 109.122 123.161 109.122 121.322 109.122 119.57 110.699 118.499 112.991 118.499 114.815 118.499 116.285 119.358 116.356 121.162L113.991 121.162C113.92 120.161 113.134 120.09 112.727 120.09 112.029 120.09 111.505 120.43 111.505 120.984 111.505 121.591 111.942 121.716 112.712 121.933L114.308 122.379C115.92 122.828 116.674 123.665 116.674 124.898 116.674 126.454 115.361 128.008 112.611 128.008 111.47 128.008 110.385 127.757 109.576 126.899 109 126.276 108.948 125.56 108.93 125.133L111.366 125.133 111.366 125.127 111.364 125.128ZM118.295 118.693 120.887 118.693 120.887 127.737 118.295 127.737 118.295 118.693ZM128.392 127.612C127.555 127.845 126.802 127.898 126.38 127.898 123.77 127.898 123.77 126.218 123.77 125.467L123.77 120.516 122.068 120.516 122.068 118.765 123.769 118.765 123.769 116.029 126.343 115.547 126.343 118.765 128.448 118.765 128.448 120.515 126.343 120.515 126.343 124.59C126.362 125.413 126.362 125.933 127.517 125.933 127.904 125.933 128.079 125.915 128.392 125.878L128.392 127.613 128.392 127.612ZM135.316 127.737C135.227 127.182 135.227 126.772 135.227 126.506 134.246 127.951 133.073 127.951 132.581 127.951 131.301 127.951 130.723 127.577 130.373 127.236 129.849 126.701 129.601 125.968 129.601 125.253 129.601 124.537 129.849 123.215 131.478 122.446 132.562 121.945 134.121 121.945 134.98 121.945 134.98 121.354 134.964 121.071 134.858 120.749 134.629 120.086 133.946 119.995 133.706 119.995 133.337 119.995 132.949 120.159 132.722 120.499 132.532 120.801 132.532 121.089 132.532 121.303L129.989 121.303C130.005 120.818 130.059 119.855 130.985 119.174 131.792 118.586 132.827 118.441 133.667 118.441 134.404 118.441 135.945 118.566 136.823 119.604 137.415 120.339 137.436 121.409 137.436 121.821L137.452 125.449C137.452 126.217 137.505 126.984 137.664 127.736L135.316 127.738 135.316 127.737ZM132.127 124.948C132.127 125.557 132.533 126.239 133.387 126.239 133.861 126.239 134.246 126.004 134.49 125.718 134.949 125.146 134.981 124.448 134.981 123.483 133.316 123.34 132.126 123.877 132.126 124.949L132.127 124.948ZM144.949 127.612C144.108 127.845 143.358 127.898 142.934 127.898 140.324 127.898 140.324 126.218 140.324 125.467L140.324 120.516 138.624 120.516 138.624 118.765 140.323 118.765 140.323 116.993 142.897 116.029 142.897 118.765 145 118.765 145 120.516 142.897 120.516 142.897 124.592C142.915 125.414 142.915 125.933 144.074 125.933 144.456 125.933 144.634 125.915 144.946 125.878L144.946 127.612 144.949 127.612Z" fill="#00111A"/><path d="M132.041 117.526C132.812 117.526 133.437 116.889 133.437 116.102 133.437 115.315 132.812 114.678 132.041 114.678 131.27 114.678 130.645 115.315 130.645 116.102 130.645 116.889 131.27 117.526 132.041 117.526Z" fill="#00111A"/><path d="M135.491 117.527C136.262 117.527 136.888 116.889 136.888 116.102 136.888 115.315 136.262 114.677 135.491 114.677 134.719 114.677 134.094 115.315 134.094 116.102 134.094 116.889 134.719 117.527 135.491 117.527Z" fill="#00111A"/><path d="M121.049 116.1C121.049 116.888 120.426 117.525 119.654 117.525 118.88 117.525 118.257 116.888 118.257 116.099 118.257 115.315 118.88 114.678 119.654 114.678 120.426 114.678 121.047 115.315 121.047 116.099L121.049 116.1ZM81.4252 116.1C81.4252 116.888 80.8008 117.525 80.0298 117.525 79.2589 117.525 78.6328 116.888 78.6328 116.099 78.6328 115.315 79.2589 114.678 80.0298 114.678 80.8016 114.678 81.4252 115.315 81.4252 116.099L81.4252 116.1Z" fill="#00111A"/><path d="M99.9708 77.1214C100.697 77.1214 101.285 76.521 101.285 75.7804 101.285 75.0398 100.697 74.4395 99.9708 74.4395 99.2448 74.4395 98.6562 75.0398 98.6562 75.7804 98.6562 76.521 99.2448 77.1214 99.9708 77.1214Z" fill="#00111A"/><path d="M103.284 73.6953C103.284 72.9562 102.694 72.3535 101.969 72.3535 101.244 72.3535 100.656 72.9554 100.656 73.6961 100.656 74.4352 101.244 75.0354 101.969 75.0354 102.694 75.0354 103.284 74.4352 103.284 73.6961L103.284 73.6953ZM103.284 77.8684C103.284 77.1293 102.694 76.5267 101.969 76.5267 101.244 76.5267 100.656 77.1285 100.656 77.8692 100.656 78.6083 101.244 79.2086 101.969 79.2086 102.694 79.2086 103.284 78.6091 103.284 77.8692L103.284 77.8684Z" fill="#00111A"/><path d="M104.233 77.0559C104.959 77.0559 105.547 76.4556 105.547 75.715 105.547 74.9744 104.959 74.374 104.233 74.374 103.507 74.374 102.918 74.9744 102.918 75.715 102.918 76.4556 103.507 77.0559 104.233 77.0559Z" fill="#00111A"/><path d="M106.705 72.2695C105.982 72.2695 105.391 72.8706 105.391 73.6105 105.391 74.3496 105.981 74.9498 106.705 74.9498 107.43 74.9498 108.021 74.3496 108.021 73.6105 108.021 72.8706 107.43 72.2695 106.705 72.2695Z" fill="#00111A"/><path d="M106.686 79.2561C107.412 79.2561 108 78.6558 108 77.9152 108 77.1746 107.412 76.5742 106.686 76.5742 105.96 76.5742 105.371 77.1746 105.371 77.9152 105.371 78.6558 105.96 79.2561 106.686 79.2561Z" fill="#00111A"/><path d="M104.145 81.3391C104.871 81.3391 105.462 80.7389 105.462 79.9998 105.462 79.2599 104.872 78.6572 104.145 78.6572 103.422 78.6572 102.832 79.2591 102.832 79.9998 102.832 80.7389 103.421 81.3391 104.145 81.3391ZM103.41 82.5968C103.41 81.8561 102.821 81.2542 102.094 81.2542 101.371 81.2542 100.781 81.8561 100.781 82.596 100.781 83.3342 101.37 83.9353 102.094 83.9353 102.819 83.9353 103.41 83.3342 103.41 82.596L103.41 82.5968Z" fill="#00111A"/><path d="M100.049 86.7815C100.775 86.7815 101.363 86.1812 101.363 85.4406 101.363 84.7 100.775 84.0996 100.049 84.0996 99.3229 84.0996 98.7344 84.7 98.7344 85.4406 98.7344 86.1812 99.3229 86.7815 100.049 86.7815Z" fill="#00111A"/><path d="M109.482 77.0608C110.208 77.0608 110.797 76.4604 110.797 75.7199 110.797 74.9793 110.208 74.3789 109.482 74.3789 108.757 74.3789 108.168 74.9793 108.168 75.7199 108.168 76.4604 108.757 77.0608 109.482 77.0608Z" fill="#00111A"/><path d="M109.346 81.5393C110.072 81.5393 110.66 80.939 110.66 80.1984 110.66 79.4578 110.072 78.8574 109.346 78.8574 108.62 78.8574 108.031 79.4578 108.031 80.1984 108.031 80.939 108.62 81.5393 109.346 81.5393Z" fill="#00111A"/><path d="M112.416 76.8389C111.694 76.8389 111.103 77.4407 111.103 78.1815 111.103 78.9189 111.692 79.5208 112.416 79.5208 113.141 79.5208 113.733 78.9189 113.733 78.1815 113.731 77.4407 113.141 76.8389 112.416 76.8389ZM113.375 82.7188C113.375 81.9797 112.787 81.3771 112.059 81.3771 111.339 81.3771 110.746 81.9797 110.746 82.7196 110.746 83.4579 111.336 84.0606 112.059 84.0606 112.788 84.0606 113.376 83.4579 113.376 82.7213L113.375 82.7188Z" fill="#00111A"/><path d="M108.881 86.0696C109.607 86.0696 110.195 85.4692 110.195 84.7287 110.195 83.9881 109.607 83.3877 108.881 83.3877 108.155 83.3877 107.566 83.9881 107.566 84.7287 107.566 85.4692 108.155 86.0696 108.881 86.0696Z" fill="#00111A"/><path d="M104.349 86.6069C105.074 86.6069 105.665 86.0066 105.665 85.2676 105.665 84.5277 105.075 83.9258 104.349 83.9258 103.626 83.9258 103.035 84.5277 103.035 85.2676 103.035 86.0066 103.625 86.6069 104.349 86.6069ZM102.289 89.7429C103.015 89.7429 103.606 89.1426 103.606 88.4052 103.606 87.6653 103.017 87.0626 102.289 87.0626 101.569 87.0626 100.977 87.6645 100.977 88.4052 100.979 89.1426 101.569 89.7445 102.289 89.7445L102.289 89.7429Z" fill="#00111A"/><path d="M100.033 93.0716C100.759 93.0716 101.348 92.4712 101.348 91.7306 101.348 90.99 100.759 90.3896 100.033 90.3896 99.3073 90.3896 98.7188 90.99 98.7188 91.7306 98.7188 92.4712 99.3073 93.0716 100.033 93.0716Z" fill="#00111A"/><path d="M107.731 82.2882C107.731 81.5483 107.142 80.9456 106.416 80.9456 105.689 80.9456 105.102 81.5475 105.102 82.2882 105.102 83.0264 105.688 83.6275 106.416 83.6275 107.142 83.6275 107.732 83.0272 107.732 82.2882L107.731 82.2882ZM115.495 79.291C114.772 79.291 114.182 79.8929 114.182 80.6336 114.182 81.3719 114.771 81.9729 115.495 81.9729 116.22 81.9729 116.811 81.3719 116.811 80.6336 116.811 79.8929 116.221 79.291 115.495 79.291L115.495 79.291Z" fill="#00111A"/><path d="M115.006 86.802C115.732 86.802 116.32 86.2017 116.32 85.4611 116.32 84.7205 115.732 84.1201 115.006 84.1201 114.28 84.1201 113.691 84.7205 113.691 85.4611 113.691 86.2017 114.28 86.802 115.006 86.802Z" fill="#00111A"/><path d="M118.24 89.6848C118.966 89.6848 119.555 89.0845 119.555 88.3439 119.555 87.6033 118.966 87.0029 118.24 87.0029 117.514 87.0029 116.926 87.6033 116.926 88.3439 116.926 89.0845 117.514 89.6848 118.24 89.6848Z" fill="#00111A"/><path d="M114.254 88.8906C113.532 88.8906 112.941 89.4933 112.941 90.2332 112.941 90.9715 113.53 91.5725 114.254 91.5725 114.98 91.5725 115.571 90.9715 115.571 90.2332 115.57 89.4941 114.979 88.8914 114.254 88.8914L114.254 88.8906Z" fill="#00111A"/><path d="M111.506 88.8186C112.232 88.8186 112.82 88.2183 112.82 87.4777 112.82 86.7371 112.232 86.1367 111.506 86.1367 110.78 86.1367 110.191 86.7371 110.191 87.4777 110.191 88.2183 110.78 88.8186 111.506 88.8186Z" fill="#00111A"/><path d="M109.552 92.3857C110.276 92.3857 110.868 91.7855 110.868 91.0464 110.868 90.3073 110.278 89.7054 109.552 89.7054 108.828 89.7054 108.239 90.3073 108.239 91.0464 108.239 91.7855 108.827 92.3857 109.552 92.3857ZM104.78 92.8896C105.504 92.8896 106.096 92.2893 106.096 91.5503 106.096 90.8104 105.505 90.2085 104.779 90.2085 104.056 90.2085 103.465 90.8112 103.465 91.5511 103.465 92.2902 104.054 92.8904 104.778 92.8904L104.78 92.8896ZM108.151 88.068C108.151 87.3273 107.56 86.7246 106.834 86.7246 106.109 86.7246 105.52 87.3265 105.52 88.0672 105.52 88.8038 106.108 89.4049 106.834 89.4049 107.559 89.4049 108.151 88.8038 108.151 88.0656L108.151 88.068Z" fill="#00111A"/><path d="M117.315 94.7102C118.041 94.7102 118.629 94.1099 118.629 93.3693 118.629 92.6287 118.041 92.0283 117.315 92.0283 116.589 92.0283 116 92.6287 116 93.3693 116 94.1099 116.589 94.7102 117.315 94.7102Z" fill="#00111A"/><path d="M112.325 95.6774C113.051 95.6774 113.639 95.0774 113.639 94.3372 113.639 93.5971 113.051 92.9971 112.325 92.9971 111.6 92.9971 111.012 93.5971 111.012 94.3372 111.012 95.0774 111.6 95.6774 112.325 95.6774Z" fill="#00111A"/><path d="M110.174 99.5813C110.9 99.5813 111.488 98.981 111.488 98.2404 111.488 97.4998 110.9 96.8994 110.174 96.8994 109.448 96.8994 108.859 97.4998 108.859 98.2404 108.859 98.981 109.448 99.5813 110.174 99.5813Z" fill="#00111A"/><path d="M107.365 93.5459C106.642 93.5459 106.05 94.1478 106.05 94.8877 106.05 95.6268 106.64 96.227 107.365 96.227 108.089 96.227 108.681 95.6268 108.681 94.8877 108.681 94.1478 108.089 93.5459 107.365 93.5459ZM105.084 97.572C104.361 97.572 103.77 98.1739 103.77 98.9138 103.77 99.6529 104.36 100.253 105.085 100.253 105.809 100.253 106.401 99.6529 106.401 98.9138 106.401 98.1747 105.811 97.572 105.085 97.572L105.084 97.572Z" fill="#00111A"/><path d="M102.412 96.5628C103.138 96.5628 103.727 95.9624 103.727 95.2218 103.727 94.4812 103.138 93.8809 102.412 93.8809 101.686 93.8809 101.098 94.4812 101.098 95.2218 101.098 95.9624 101.686 96.5628 102.412 96.5628Z" fill="#00111A"/><path d="M100.052 100.511C100.778 100.511 101.366 99.9113 101.366 99.1712 101.366 98.4311 100.778 97.8311 100.052 97.8311 99.3265 97.8311 98.7383 98.4311 98.7383 99.1712 98.7383 99.9113 99.3265 100.511 100.052 100.511Z" fill="#00111A"/><path d="M97.5321 93.8809C96.8092 93.8809 96.2192 94.4827 96.2192 95.2235 96.2192 95.9625 96.8084 96.5628 97.5321 96.5628 98.2567 96.5628 98.8475 95.9633 98.8475 95.2235 98.8475 94.4844 98.2567 93.8817 97.5321 93.8817L97.5321 93.8809ZM94.8911 97.5869C94.1681 97.5869 93.5781 98.1887 93.5781 98.9295 93.5781 99.6669 94.1673 100.269 94.8911 100.269 95.6164 100.269 96.2072 99.6669 96.2072 98.9295 96.2072 98.1879 95.6164 97.5861 94.8911 97.5861L94.8911 97.5869Z" fill="#00111A"/><path d="M89.9395 99.5774C90.6655 99.5774 91.2541 98.977 91.2541 98.2365 91.2541 97.4959 90.6655 96.8955 89.9395 96.8955 89.2135 96.8955 88.625 97.4959 88.625 98.2365 88.625 98.977 89.2135 99.5774 89.9395 99.5774Z" fill="#00111A"/><path d="M118.787 84.5989C119.513 84.5989 120.102 83.9985 120.102 83.2579 120.102 82.5174 119.513 81.917 118.787 81.917 118.061 81.917 117.473 82.5174 117.473 83.2579 117.473 83.9985 118.061 84.5989 118.787 84.5989Z" fill="#00111A"/><path d="M122.072 87.3626C122.798 87.3626 123.387 86.7622 123.387 86.0216 123.387 85.281 122.798 84.6807 122.072 84.6807 121.346 84.6807 120.758 85.281 120.758 86.0216 120.758 86.7622 121.346 87.3626 122.072 87.3626Z" fill="#00111A"/><path d="M122.736 82.2698C123.462 82.2698 124.051 81.6694 124.051 80.9288 124.051 80.1883 123.462 79.5879 122.736 79.5879 122.01 79.5879 121.422 80.1883 121.422 80.9288 121.422 81.6694 122.01 82.2698 122.736 82.2698Z" fill="#00111A"/><path d="M119.088 79.6096C119.814 79.6096 120.403 79.0093 120.403 78.2687 120.403 77.5281 119.814 76.9277 119.088 76.9277 118.362 76.9277 117.773 77.5281 117.773 78.2687 117.773 79.0093 118.362 79.6096 119.088 79.6096Z" fill="#00111A"/><path d="M122.959 77.0735C123.685 77.0735 124.274 76.4732 124.274 75.7326 124.274 74.992 123.685 74.3916 122.959 74.3916 122.233 74.3916 121.645 74.992 121.645 75.7326 121.645 76.4732 122.233 77.0735 122.959 77.0735Z" fill="#00111A"/><path d="M119.084 74.6507C119.81 74.6507 120.399 74.0503 120.399 73.3097 120.399 72.5691 119.81 71.9688 119.084 71.9688 118.358 71.9688 117.77 72.5691 117.77 73.3097 117.77 74.0503 118.358 74.6507 119.084 74.6507Z" fill="#00111A"/><path d="M122.725 71.8948C123.451 71.8948 124.039 71.2944 124.039 70.5538 124.039 69.8133 123.451 69.2129 122.725 69.2129 121.999 69.2129 121.41 69.8133 121.41 70.5538 121.41 71.2944 121.999 71.8948 122.725 71.8948Z" fill="#00111A"/><path d="M117.449 68.2415C117.449 68.9806 118.038 69.5809 118.762 69.5809 119.487 69.5809 120.078 68.9806 120.078 68.2415 120.078 67.5025 119.49 66.9006 118.762 66.9006 118.038 66.9006 117.449 67.5025 117.449 68.2415ZM122.072 66.7372C122.797 66.7372 123.389 66.137 123.389 65.3979 123.389 64.6588 122.799 64.0586 122.072 64.0586 121.351 64.0586 120.759 64.6588 120.759 65.3979 120.76 66.1378 121.351 66.7372 122.072 66.7372Z" fill="#00111A"/><path d="M118.233 64.5471C118.958 64.5471 119.547 63.9468 119.547 63.2062 119.547 62.4656 118.958 61.8652 118.233 61.8652 117.507 61.8652 116.918 62.4656 116.918 63.2062 116.918 63.9468 117.507 64.5471 118.233 64.5471Z" fill="#00111A"/><path d="M117.305 59.5279C118.03 59.5279 118.622 58.9269 118.622 58.1886 118.622 57.4487 118.031 56.8477 117.305 56.8477 116.582 56.8477 115.992 57.4495 115.992 58.1894 115.992 58.9285 116.582 59.5288 117.305 59.5288L117.305 59.5279Z" fill="#00111A"/><path d="M114.279 62.6305C115.004 62.6305 115.592 62.0305 115.592 61.2903 115.592 60.5502 115.004 59.9502 114.279 59.9502 113.553 59.9502 112.965 60.5502 112.965 61.2903 112.965 62.0305 113.553 62.6305 114.279 62.6305Z" fill="#00111A"/><path d="M111.479 65.3948C112.205 65.3948 112.793 64.7944 112.793 64.0538 112.793 63.3133 112.205 62.7129 111.479 62.7129 110.753 62.7129 110.164 63.3133 110.164 64.0538 110.164 64.7944 110.753 65.3948 111.479 65.3948Z" fill="#00111A"/><path d="M107.555 66.7859C107.555 67.5242 108.145 68.1253 108.869 68.1253 109.595 68.1253 110.186 67.5242 110.186 66.7859 110.186 66.0452 109.596 65.4434 108.869 65.4434 108.147 65.4434 107.556 66.0452 107.556 66.7851L107.555 66.7859Z" fill="#00111A"/><path d="M106.854 64.804C107.58 64.804 108.168 64.2036 108.168 63.463 108.168 62.7224 107.58 62.1221 106.854 62.1221 106.128 62.1221 105.539 62.7224 105.539 63.463 105.539 64.2036 106.128 64.804 106.854 64.804Z" fill="#00111A"/><path d="M104.763 61.3385C105.489 61.3385 106.077 60.7385 106.077 59.9983 106.077 59.2582 105.489 58.6582 104.763 58.6582 104.037 58.6582 103.449 59.2582 103.449 59.9983 103.449 60.7385 104.037 61.3385 104.763 61.3385Z" fill="#00111A"/><path d="M102.307 64.4397C103.033 64.4397 103.621 63.8394 103.621 63.0988 103.621 62.3582 103.033 61.7578 102.307 61.7578 101.581 61.7578 100.992 62.3582 100.992 63.0988 100.992 63.8394 101.581 64.4397 102.307 64.4397Z" fill="#00111A"/><path d="M97.634 64.4693C98.3596 64.4693 98.9478 63.8693 98.9478 63.1292 98.9478 62.3891 98.3596 61.7891 97.634 61.7891 96.9085 61.7891 96.3203 62.3891 96.3203 63.1292 96.3203 63.8693 96.9085 64.4693 97.634 64.4693Z" fill="#00111A"/><path d="M95.6544 67.6165C96.3804 67.6165 96.9689 67.0161 96.9689 66.2755 96.9689 65.5349 96.3804 64.9346 95.6544 64.9346 94.9284 64.9346 94.3398 65.5349 94.3398 66.2755 94.3398 67.0161 94.9284 67.6165 95.6544 67.6165Z" fill="#00111A"/><path d="M96.5469 68.9705C96.5469 69.7088 97.1369 70.3098 97.8598 70.3098 98.5859 70.3098 99.1767 69.7088 99.1767 68.9705 99.1767 68.2306 98.5867 67.6279 97.8606 67.6279 97.1377 67.6279 96.5477 68.2323 96.5477 68.9713L96.5469 68.9705Z" fill="#00111A"/><path d="M93.595 70.5758C94.3205 70.5758 94.9087 69.9758 94.9087 69.2356 94.9087 68.4955 94.3205 67.8955 93.595 67.8955 92.8694 67.8955 92.2812 68.4955 92.2812 69.2356 92.2812 69.9758 92.8694 70.5758 93.595 70.5758Z" fill="#00111A"/><path d="M90.67 72.68C91.396 72.68 91.9845 72.0796 91.9845 71.339 91.9845 70.5984 91.396 69.998 90.67 69.998 89.944 69.998 89.3555 70.5984 89.3555 71.339 89.3555 72.0796 89.944 72.68 90.67 72.68Z" fill="#00111A"/><path d="M87.5903 74.7563C88.3156 74.7563 88.9064 74.1552 88.9064 73.417 88.9064 72.6763 88.3164 72.0752 87.5903 72.0752 86.8682 72.0752 86.2773 72.6763 86.2773 73.4162 86.2773 74.1544 86.8682 74.7555 87.5903 74.7555L87.5903 74.7563Z" fill="#00111A"/><path d="M87.9239 70.1409C88.6499 70.1409 89.2384 69.5405 89.2384 68.7999 89.2384 68.0594 88.6499 67.459 87.9239 67.459 87.1979 67.459 86.6094 68.0594 86.6094 68.7999 86.6094 69.5405 87.1979 70.1409 87.9239 70.1409Z" fill="#00111A"/><path d="M84.4973 72.2242C85.2229 72.2242 85.8111 71.6242 85.8111 70.8841 85.8111 70.1439 85.2229 69.5439 84.4973 69.5439 83.7718 69.5439 83.1836 70.1439 83.1836 70.8841 83.1836 71.6242 83.7718 72.2242 84.4973 72.2242Z" fill="#00111A"/><path d="M80.8959 74.6231C81.6212 74.6231 82.2121 74.0229 82.2121 73.2838 82.2121 72.5439 81.6221 71.9412 80.8959 71.9412 80.173 71.9412 79.583 72.5431 79.583 73.2838 79.583 74.0229 80.1722 74.6231 80.8959 74.6231ZM77.2614 71.8816C77.9867 71.8816 78.5775 71.2814 78.5775 70.5439 78.5775 69.804 77.9875 69.2021 77.2622 69.2021 76.5376 69.2021 75.9492 69.8032 75.9492 70.5431 75.9492 71.2806 76.5368 71.8824 77.2622 71.8824L77.2614 71.8816Z" fill="#00111A"/><path d="M81.2364 69.593C81.9624 69.593 82.5509 68.9927 82.5509 68.2521 82.5509 67.5115 81.9624 66.9111 81.2364 66.9111 80.5104 66.9111 79.9219 67.5115 79.9219 68.2521 79.9219 68.9927 80.5104 69.593 81.2364 69.593Z" fill="#00111A"/><path d="M77.9418 64.0384C77.2173 64.0384 76.6289 64.6402 76.6289 65.3801 76.6289 66.1168 77.2165 66.7178 77.9418 66.7178 78.6672 66.7178 79.2572 66.1168 79.2572 65.3785 79.2572 64.6394 78.6664 64.0375 77.9418 64.0375L77.9418 64.0384ZM81.8086 64.552C82.5331 64.552 83.1239 63.9518 83.1239 63.2127 83.1239 62.4728 82.5339 61.8701 81.8078 61.8701 81.0841 61.8701 80.4933 62.4728 80.4933 63.2135 80.4933 63.9518 81.0841 64.5528 81.8062 64.5528L81.8086 64.552ZM84.9949 64.6868C84.2695 64.6868 83.6803 65.2895 83.6803 66.031 83.6803 66.7684 84.2687 67.3703 84.9933 67.3703 85.7194 67.3703 86.3086 66.7684 86.3086 66.031 86.3086 65.2895 85.7202 64.6876 84.9957 64.6876L84.9949 64.6868Z" fill="#00111A"/><path d="M88.5481 65.3824C89.2737 65.3824 89.8618 64.7824 89.8618 64.0423 89.8618 63.3021 89.2737 62.7021 88.5481 62.7021 87.8226 62.7021 87.2344 63.3021 87.2344 64.0423 87.2344 64.7824 87.8226 65.3824 88.5481 65.3824Z" fill="#00111A"/><path d="M91.1192 68.1302C91.8452 68.1302 92.4338 67.5298 92.4338 66.7892 92.4338 66.0486 91.8452 65.4482 91.1192 65.4482 90.3932 65.4482 89.8047 66.0486 89.8047 66.7892 89.8047 67.5298 90.3932 68.1302 91.1192 68.1302Z" fill="#00111A"/><path d="M84.3341 77.054C85.0601 77.054 85.6486 76.4536 85.6486 75.713 85.6486 74.9724 85.0601 74.3721 84.3341 74.3721 83.6081 74.3721 83.0195 74.9724 83.0195 75.713 83.0195 76.4536 83.6081 77.054 84.3341 77.054Z" fill="#00111A"/><path d="M100.055 64.7773C99.3322 64.7773 98.7422 65.3784 98.7422 66.1183 98.7422 66.8574 99.3314 67.4576 100.055 67.4576 100.781 67.4576 101.37 66.8574 101.37 66.1183 101.37 65.3784 100.781 64.7773 100.055 64.7773Z" fill="#00111A"/><path d="M109.541 61.7923C110.267 61.7923 110.856 61.1919 110.856 60.4513 110.856 59.7107 110.267 59.1104 109.541 59.1104 108.815 59.1104 108.227 59.7107 108.227 60.4513 108.227 61.1919 108.815 61.7923 109.541 61.7923Z" fill="#00111A"/><path d="M112.329 58.4918C113.055 58.4918 113.643 57.8918 113.643 57.1517 113.643 56.4115 113.055 55.8115 112.329 55.8115 111.604 55.8115 111.016 56.4115 111.016 57.1517 111.016 57.8918 111.604 58.4918 112.329 58.4918Z" fill="#00111A"/><path d="M107.382 57.9616C108.105 57.9616 108.695 57.3605 108.695 56.6222 108.695 55.8832 108.107 55.2813 107.382 55.2813 106.657 55.2813 106.066 55.8832 106.066 56.6231 106.066 57.3613 106.655 57.9624 107.381 57.9624L107.382 57.9616ZM110.184 54.6051C110.909 54.6051 111.501 54.0048 111.501 53.2658 111.501 52.5267 110.911 51.9248 110.185 51.9248 109.462 51.9248 108.872 52.5267 108.872 53.2658 108.872 54.0048 109.461 54.6051 110.185 54.6051L110.184 54.6051Z" fill="#00111A"/><path d="M105.099 53.9498C105.824 53.9498 106.413 53.3498 106.413 52.6097 106.413 51.8695 105.824 51.2695 105.099 51.2695 104.373 51.2695 103.785 51.8695 103.785 52.6097 103.785 53.3498 104.373 53.9498 105.099 53.9498Z" fill="#00111A"/><path d="M100.036 53.6819C100.761 53.6819 101.352 53.0809 101.352 52.3426 101.35 51.6019 100.761 51 100.036 51 99.3119 51 98.7227 51.6019 98.7227 52.3426 98.7227 53.0809 99.3119 53.6819 100.036 53.6819Z" fill="#00111A"/><path d="M94.8809 53.9368C95.6069 53.9368 96.1955 53.3364 96.1955 52.5958 96.1955 51.8552 95.6069 51.2549 94.8809 51.2549 94.1549 51.2549 93.5664 51.8552 93.5664 52.5958 93.5664 53.3364 94.1549 53.9368 94.8809 53.9368Z" fill="#00111A"/><path d="M89.9332 54.6194C90.6585 54.6194 91.2494 54.0184 91.2494 53.2801 91.2494 52.5402 90.6601 51.9375 89.934 51.9375 89.2111 51.9375 88.6211 52.5386 88.6211 53.2793 88.6211 54.0175 89.2103 54.6186 89.934 54.6186L89.9332 54.6194ZM97.4946 57.6451C98.2199 57.6451 98.8107 57.0441 98.8107 56.3058 98.8107 55.5659 98.2207 54.9649 97.4946 54.9649 96.7709 54.9649 96.1817 55.5659 96.1817 56.3058 96.1817 57.0441 96.7709 57.6451 97.4946 57.6451Z" fill="#00111A"/><path d="M92.6231 57.9778C93.3491 57.9778 93.9377 57.3774 93.9377 56.6369 93.9377 55.8963 93.3491 55.2959 92.6231 55.2959 91.8971 55.2959 91.3086 55.8963 91.3086 56.6369 91.3086 57.3774 91.8971 57.9778 92.6231 57.9778Z" fill="#00111A"/><path d="M90.4673 59.1274C89.7444 59.1274 89.1544 59.7301 89.1544 60.4684 89.1544 61.2075 89.7436 61.8077 90.4673 61.8077 91.1926 61.8077 91.7834 61.2075 91.7834 60.4684 91.7834 59.7293 91.1926 59.1274 90.4673 59.1274ZM85.7175 62.6423C86.442 62.6423 87.032 62.0413 87.032 61.303 87.032 60.5623 86.4428 59.9612 85.7167 59.9612 84.993 59.9612 84.4022 60.5623 84.4022 61.3022 84.4022 62.0413 84.993 62.6415 85.7151 62.6415L85.7175 62.6423ZM82.9379 59.508C83.6632 59.508 84.2541 58.9061 84.2541 58.1687 84.2541 57.428 83.664 56.8253 82.9379 56.8253 82.2158 56.8253 81.625 57.428 81.625 58.1679 81.625 58.9061 82.2158 59.5072 82.9379 59.5072L82.9379 59.508ZM87.7013 58.5092C88.4258 58.5092 89.0167 57.9082 89.0167 57.1699 89.0167 56.4308 88.4274 55.8281 87.7021 55.8281 86.9792 55.8281 86.3892 56.43 86.3892 57.1707 86.3892 57.9082 86.9784 58.51 87.7021 58.51L87.7013 58.5092Z" fill="#00111A"/><path d="M93.1653 64.7877C93.8909 64.7877 94.479 64.1877 94.479 63.4476 94.479 62.7074 93.8909 62.1074 93.1653 62.1074 92.4397 62.1074 91.8516 62.7074 91.8516 63.4476 91.8516 64.1877 92.4397 64.7877 93.1653 64.7877Z" fill="#00111A"/><path d="M95.2013 61.3206C95.9272 61.3206 96.5158 60.7202 96.5158 59.9796 96.5158 59.239 95.9272 58.6387 95.2013 58.6387 94.4753 58.6387 93.8867 59.239 93.8867 59.9796 93.8867 60.7202 94.4753 61.3206 95.2013 61.3206Z" fill="#00111A"/><path d="M102.404 57.6451C103.129 57.6451 103.717 57.0451 103.717 56.305 103.717 55.5648 103.129 54.9648 102.404 54.9648 101.678 54.9648 101.09 55.5648 101.09 56.305 101.09 57.0451 101.678 57.6451 102.404 57.6451Z" fill="#00111A"/><path d="M100.045 61.1155C100.771 61.1155 101.36 60.5151 101.36 59.7746 101.36 59.034 100.771 58.4336 100.045 58.4336 99.319 58.4336 98.7305 59.034 98.7305 59.7746 98.7305 60.5151 99.319 61.1155 100.045 61.1155Z" fill="#00111A"/><path d="M107.686 69.2197C107.686 68.4798 107.095 67.8779 106.369 67.8779 105.643 67.8779 105.056 68.4798 105.056 69.2197 105.056 69.958 105.643 70.559 106.369 70.559 107.095 70.559 107.686 69.958 107.686 69.2197ZM104.172 70.1891C103.448 70.1891 102.859 70.791 102.859 71.5317 102.859 72.2699 103.447 72.871 104.172 72.871 104.898 72.871 105.488 72.2699 105.488 71.5317 105.486 70.7918 104.896 70.1899 104.172 70.1899L104.172 70.1891Z" fill="#00111A"/><path d="M102.115 70.2525C102.84 70.2525 103.428 69.6525 103.428 68.9124 103.428 68.1723 102.84 67.5723 102.115 67.5723 101.389 67.5723 100.801 68.1723 100.801 68.9124 100.801 69.6525 101.389 70.2525 102.115 70.2525Z" fill="#00111A"/><path d="M100.032 72.7809C100.758 72.7809 101.346 72.1809 101.346 71.4407 101.346 70.7006 100.758 70.1006 100.032 70.1006 99.3069 70.1006 98.7188 70.7006 98.7188 71.4407 98.7188 72.1809 99.3069 72.7809 100.032 72.7809Z" fill="#00111A"/><path d="M96.656 73.6955C96.656 74.4345 97.2452 75.0348 97.9689 75.0348 98.6934 75.0348 99.2842 74.4345 99.2842 73.6955 99.2842 72.9564 98.6942 72.3537 97.9689 72.3537 97.2452 72.3537 96.656 72.9556 96.656 73.6963L96.656 73.6955ZM95.8674 70.2148C95.1437 70.2148 94.5545 70.8167 94.5545 71.5566 94.5545 72.2949 95.1429 72.8959 95.8674 72.8959 96.5919 72.8959 97.182 72.2957 97.182 71.5566 97.182 70.8175 96.5911 70.2157 95.8674 70.2157L95.8674 70.2148ZM95.7473 77.0813C96.4718 77.0813 97.0627 76.4794 97.0627 75.742 97.0627 75.0021 96.4726 74.4002 95.7465 74.4002 95.022 74.4002 94.4336 75.0021 94.4336 75.742 94.4336 76.4794 95.022 77.0813 95.7465 77.0813L95.7473 77.0813Z" fill="#00111A"/><path d="M93.2903 74.9889C94.0159 74.9889 94.604 74.3889 94.604 73.6487 94.604 72.9086 94.0159 72.3086 93.2903 72.3086 92.5647 72.3086 91.9766 72.9086 91.9766 73.6487 91.9766 74.3889 92.5647 74.9889 93.2903 74.9889Z" fill="#00111A"/><path d="M93.302 79.2897C94.0276 79.2897 94.6157 78.6897 94.6157 77.9495 94.6157 77.2094 94.0276 76.6094 93.302 76.6094 92.5765 76.6094 91.9883 77.2094 91.9883 77.9495 91.9883 78.6897 92.5765 79.2897 93.302 79.2897Z" fill="#00111A"/><path d="M90.5239 77.0489C91.2492 77.0489 91.84 76.4479 91.84 75.7096 91.84 74.9689 91.25 74.3662 90.5239 74.3662 89.801 74.3662 89.2109 74.9689 89.2109 75.7088 89.2109 76.4487 89.801 77.0481 90.5239 77.0481L90.5239 77.0489Z" fill="#00111A"/><path d="M90.7356 81.5631C91.4612 81.5631 92.0493 80.9631 92.0493 80.223 92.0493 79.4828 91.4612 78.8828 90.7356 78.8828 90.0101 78.8828 89.4219 79.4828 89.4219 80.223 89.4219 80.9631 90.0101 81.5631 90.7356 81.5631Z" fill="#00111A"/><path d="M87.5895 79.512C88.3156 79.512 88.9064 78.9109 88.9064 78.1727 88.9064 77.432 88.3164 76.8301 87.5903 76.8301 86.8674 76.8301 86.2773 77.4311 86.2773 78.171 86.2773 78.9101 86.8674 79.5104 87.5903 79.5104L87.5895 79.512ZM87.9553 84.1098C88.6807 84.1098 89.2715 83.5087 89.2715 82.7705 89.2715 82.0306 88.6823 81.4295 87.9561 81.4295 87.2332 81.4295 86.6432 82.0314 86.6432 82.7713 86.6432 83.5104 87.2332 84.1106 87.9561 84.1106L87.9553 84.1098Z" fill="#00111A"/><path d="M84.9981 86.844C85.7241 86.844 86.3127 86.2437 86.3127 85.5031 86.3127 84.7625 85.7241 84.1621 84.9981 84.1621 84.2721 84.1621 83.6836 84.7625 83.6836 85.5031 83.6836 86.2437 84.2721 86.844 84.9981 86.844Z" fill="#00111A"/><path d="M82.5306 83.2864C82.5306 82.5465 81.9414 81.9438 81.2161 81.9438 80.4908 81.9438 79.9031 82.5465 79.9031 83.2872 79.9031 84.0263 80.4908 84.6265 81.2161 84.6265 81.9414 84.6265 82.5306 84.0263 82.5306 83.2872L82.5306 83.2864ZM78.5886 80.9597C78.5886 80.2198 77.9978 79.6171 77.2725 79.6171 76.5471 79.6171 75.9595 80.219 75.9595 80.9597 75.9595 81.698 76.5463 82.2991 77.2725 82.2991 77.9978 82.2991 78.5886 81.698 78.5886 80.9597ZM80.8974 79.6294C81.6228 79.6294 82.2136 79.0283 82.2136 78.2901 82.2136 77.5502 81.6236 76.9475 80.8974 76.9475 80.1745 76.9475 79.5845 77.5494 79.5845 78.2901 79.5845 79.0283 80.1737 79.6294 80.8974 79.6294ZM77.0387 77.0553C77.7648 77.0553 78.3548 76.4542 78.3548 75.716 78.3548 74.9769 77.7656 74.375 77.0395 74.375 76.3158 74.375 75.7266 74.9769 75.7266 75.7168 75.7282 76.4542 76.3158 77.0561 77.0395 77.0561L77.0387 77.0553ZM84.5032 81.9569C85.2285 81.9569 85.8193 81.3558 85.8193 80.6176 85.8193 79.8768 85.2293 79.2758 84.5032 79.2758 83.7795 79.2758 83.1903 79.8768 83.1903 80.6167 83.1903 81.3558 83.7795 81.9561 84.5032 81.9561L84.5032 81.9569Z" fill="#00111A"/><path d="M77.9278 87.3596C78.6538 87.3596 79.2424 86.7593 79.2424 86.0187 79.2424 85.2781 78.6538 84.6777 77.9278 84.6777 77.2018 84.6777 76.6133 85.2781 76.6133 86.0187 76.6133 86.7593 77.2018 87.3596 77.9278 87.3596Z" fill="#00111A"/><path d="M83.083 88.3541C83.083 87.6142 82.4922 87.0115 81.7661 87.0115 81.0423 87.0115 80.4531 87.6134 80.4531 88.3541 80.4531 89.0923 81.0415 89.6934 81.7661 89.6934 82.4922 89.6934 83.083 89.0931 83.083 88.3541ZM99.2841 77.8681C99.2841 77.1291 98.6941 76.5264 97.9688 76.5264 97.2459 76.5264 96.6559 77.1282 96.6559 77.869 96.6559 78.608 97.2451 79.2083 97.9688 79.2083 98.6941 79.2099 99.2841 78.6089 99.2841 77.869L99.2841 77.8681Z" fill="#00111A"/><path d="M100.033 81.4016C100.759 81.4016 101.348 80.8013 101.348 80.0607 101.348 79.3201 100.759 78.7197 100.033 78.7197 99.3073 78.7197 98.7188 79.3201 98.7188 80.0607 98.7188 80.8013 99.3073 81.4016 100.033 81.4016Z" fill="#00111A"/><path d="M99.1642 82.5965C99.1642 81.8558 98.5742 81.2539 97.8481 81.2539 97.1252 81.2539 96.5352 81.8558 96.5352 82.5957 96.5352 83.3339 97.1244 83.935 97.8481 83.935 98.5742 83.935 99.1642 83.3339 99.1642 82.5957L99.1642 82.5965Z" fill="#00111A"/><path d="M95.6661 86.6077C96.3921 86.6077 96.9806 86.0073 96.9806 85.2667 96.9806 84.5261 96.3921 83.9258 95.6661 83.9258 94.9401 83.9258 94.3516 84.5261 94.3516 85.2667 94.3516 86.0073 94.9401 86.6077 95.6661 86.6077Z" fill="#00111A"/><path d="M97.6544 89.7591C98.3804 89.7591 98.9689 89.1587 98.9689 88.4181 98.9689 87.6775 98.3804 87.0771 97.6544 87.0771 96.9284 87.0771 96.3398 87.6775 96.3398 88.4181 96.3398 89.1587 96.9284 89.7591 97.6544 89.7591Z" fill="#00111A"/><path d="M95.2208 92.8811C95.9468 92.8811 96.5353 92.2808 96.5353 91.5402 96.5353 90.7996 95.9468 90.1992 95.2208 90.1992 94.4948 90.1992 93.9062 90.7996 93.9062 91.5402 93.9062 92.2808 94.4948 92.8811 95.2208 92.8811Z" fill="#00111A"/><path d="M90.4363 92.3721C91.1616 92.3721 91.7516 91.7719 91.7516 91.0328 91.7516 90.2929 91.1624 89.691 90.4363 89.691 89.7126 89.691 89.1233 90.2929 89.1233 91.0328 89.1233 91.7719 89.7118 92.3721 90.4363 92.3721ZM88.5653 88.8082C89.2907 88.8082 89.8807 88.2071 89.8807 87.4689 89.8807 86.729 89.2907 86.1279 88.5645 86.1279 87.8416 86.1279 87.25 86.7282 87.25 87.4689 87.25 88.208 87.8408 88.8082 88.5645 88.8082L88.5653 88.8082Z" fill="#00111A"/><path d="M93.1583 89.3938C93.8843 89.3938 94.4728 88.7935 94.4728 88.0529 94.4728 87.3123 93.8843 86.7119 93.1583 86.7119 92.4323 86.7119 91.8438 87.3123 91.8438 88.0529 91.8438 88.7935 92.4323 89.3938 93.1583 89.3938Z" fill="#00111A"/><path d="M92.44 84.717C92.44 83.9771 91.8499 83.3744 91.1254 83.3744 90.4009 83.3744 89.8125 83.9763 89.8125 84.717 89.8125 85.4561 90.4001 86.0563 91.1254 86.0563 91.8491 86.0563 92.44 85.4552 92.44 84.717ZM93.5688 83.6227C94.2941 83.6227 94.8841 83.0216 94.8841 82.2833 94.8841 81.5434 94.2949 80.9424 93.5688 80.9424 92.8451 80.9424 92.2558 81.5434 92.2558 82.2833 92.2558 83.0216 92.8443 83.6227 93.5688 83.6227Z" fill="#00111A"/><path d="M95.8645 81.317C96.5901 81.317 97.1783 80.717 97.1783 79.9769 97.1783 79.2367 96.5901 78.6367 95.8645 78.6367 95.139 78.6367 94.5508 79.2367 94.5508 79.9769 94.5508 80.717 95.139 81.317 95.8645 81.317Z" fill="#00111A"/><path d="M87.0189 90.2335C87.0189 89.4936 86.4297 88.8926 85.7036 88.8926 84.9806 88.8926 84.3906 89.4936 84.3906 90.2335 84.3906 90.9726 84.9798 91.5729 85.7036 91.5729 86.4297 91.5729 87.0189 90.9726 87.0189 90.2335Z" fill="#00111A"/><path d="M87.6614 95.6783C88.3869 95.6783 88.9751 95.0783 88.9751 94.3382 88.9751 93.5981 88.3869 92.998 87.6614 92.998 86.9358 92.998 86.3477 93.5981 86.3477 94.3382 86.3477 95.0783 86.9358 95.6783 87.6614 95.6783Z" fill="#00111A"/><path d="M82.9028 92.0225C82.1799 92.0225 81.5898 92.6243 81.5898 93.3642 81.5898 94.1017 82.1791 94.7036 82.9028 94.7036 83.6281 94.7036 84.2189 94.1025 84.2189 93.3642 84.2189 92.6243 83.6289 92.0225 82.9028 92.0225ZM92.6105 93.548C91.886 93.548 91.2959 94.1499 91.2959 94.8906 91.2959 95.628 91.8852 96.2299 92.6089 96.2299 93.335 96.2299 93.9242 95.628 93.9242 94.8906 93.9242 94.1499 93.3358 93.548 92.6113 93.548L92.6105 93.548Z" fill="#00111A"/><path d="M104.354 67.6292C105.08 67.6292 105.668 67.0288 105.668 66.2882 105.668 65.5476 105.08 64.9473 104.354 64.9473 103.628 64.9473 103.039 65.5476 103.039 66.2882 103.039 67.0288 103.628 67.6292 104.354 67.6292Z" fill="#00111A"/><path d="M113.656 66.0636C113.656 66.8027 114.246 67.4029 114.971 67.4029 115.696 67.4029 116.288 66.8027 116.288 66.0636 116.288 65.3237 115.697 64.7227 114.971 64.7227 114.246 64.7227 113.658 65.3245 113.658 66.0636L113.656 66.0636Z" fill="#00111A"/><path d="M112.061 70.1516C112.787 70.1516 113.375 69.5513 113.375 68.8107 113.375 68.0701 112.787 67.4697 112.061 67.4697 111.335 67.4697 110.746 68.0701 110.746 68.8107 110.746 69.5513 111.335 70.1516 112.061 70.1516Z" fill="#00111A"/><path d="M115.465 72.2189C116.191 72.2189 116.782 71.6178 116.782 70.8795 116.782 70.1388 116.193 69.5361 115.465 69.5361 114.743 69.5361 114.152 70.1388 114.152 70.8787 114.156 71.6178 114.743 72.218 115.465 72.218L115.465 72.2189Z" fill="#00111A"/><path d="M115.67 77.052C116.396 77.052 116.985 76.4517 116.985 75.7111 116.985 74.9705 116.396 74.3701 115.67 74.3701 114.944 74.3701 114.355 74.9705 114.355 75.7111 114.355 76.4517 114.944 77.052 115.67 77.052Z" fill="#00111A"/><path d="M112.372 74.735C113.098 74.735 113.686 74.135 113.686 73.3948 113.686 72.6547 113.098 72.0547 112.372 72.0547 111.647 72.0547 111.059 72.6547 111.059 73.3948 111.059 74.135 111.647 74.735 112.372 74.735Z" fill="#00111A"/><path d="M109.329 72.6674C110.054 72.6674 110.645 72.0664 110.645 71.3281 110.645 70.5882 110.056 69.9863 109.329 69.9863 108.606 69.9863 108.016 70.5874 108.016 71.3257 108.017 72.0655 108.606 72.6666 109.329 72.6666L109.329 72.6674Z" fill="#00111A"/></svg>