<svg width="200" height="200" viewBox="0 0 200 200" xmlns="http://www.w3.org/2000/svg" xmlns:xlink="http://www.w3.org/1999/xlink" fill="none" overflow="hidden"><rect x="0" y="0" rx="36" width="200" height="200" fill="#FFFFFF"/><path d="M148.609 109.966 148.609 119.502 181.001 100.436 148.609 81.3691 148.609 90.8994 164.808 100.436 148.609 109.966Z" fill="#B70032"/><path d="M34.0328 92.1786 38.7071 92.1786 29.3527 108.692 20.0039 92.1786 24.6783 92.1786 29.3527 100.435 34.0328 92.1786 34.0328 92.1786ZM106.278 91.7906C104.593 91.7906 102.946 92.3 101.545 93.2543 100.144 94.2086 99.0523 95.565 98.4074 97.152 97.7626 98.739 97.5939 100.485 97.9226 102.17 98.2514 103.855 99.0628 105.402 100.254 106.617 101.446 107.831 102.964 108.659 104.616 108.994 106.269 109.329 107.982 109.157 109.539 108.499 111.096 107.842 112.426 106.729 113.362 105.301 114.298 103.872 114.798 102.193 114.798 100.476 114.798 98.1722 113.9 95.9632 112.303 94.3344 110.705 92.7057 108.538 91.7906 106.278 91.7906L106.278 91.7906ZM106.278 105.021C105.393 105.021 104.528 104.753 103.792 104.252 103.056 103.75 102.482 103.038 102.144 102.204 101.805 101.371 101.716 100.453 101.889 99.5681 102.062 98.6831 102.488 97.8701 103.114 97.2321 103.74 96.594 104.537 96.1594 105.405 95.9834 106.274 95.8074 107.173 95.8977 107.991 96.243 108.809 96.5884 109.508 97.1731 110 97.9234 110.492 98.6737 110.754 99.5559 110.754 100.458 110.748 101.664 110.274 102.819 109.435 103.669 108.597 104.52 107.462 104.998 106.278 104.998L106.278 105.021ZM70.7009 104.998C69.9647 104.998 69.2398 104.813 68.5904 104.46 67.941 104.106 67.3872 103.595 66.978 102.971 66.5688 102.347 66.3169 101.63 66.2446 100.883 66.1723 100.136 66.2819 99.3828 66.5635 98.6894 66.8452 97.996 67.2903 97.3842 67.8594 96.9081 68.4285 96.432 69.104 96.1064 69.8261 95.9601 70.5481 95.8138 71.2944 95.8513 71.9989 96.0694 72.7033 96.2874 73.3441 96.6792 73.8645 97.2101L76.7043 94.3151C75.5142 93.0969 73.9962 92.2662 72.3427 91.9283 70.6891 91.5903 68.9743 91.7602 67.4156 92.4165 65.8568 93.0728 64.5242 94.186 63.5865 95.615 62.6488 97.044 62.1483 98.7245 62.1483 100.444 62.1483 102.163 62.6488 103.844 63.5865 105.273 64.5242 106.702 65.8568 107.815 67.4156 108.471 68.9743 109.127 70.6891 109.297 72.3427 108.959 73.9962 108.621 75.5142 107.791 76.7043 106.572L73.8645 103.677C73.4482 104.099 72.9546 104.432 72.4117 104.659 71.8688 104.885 71.2874 105.001 70.7009 104.998ZM79.9758 95.8957 85.4397 95.8957 85.4397 108.692 89.4893 108.692 89.4893 95.8957 94.9588 95.8957 94.9588 92.1786 79.9758 92.1786 79.9758 95.8957 79.9758 95.8957ZM43.9779 108.692 56.53 108.692 56.53 104.974 48.0275 104.974 48.0275 102.085 54.6671 102.085 54.6671 98.4549 48.0275 98.4549 48.0275 95.8957 56.53 95.8957 56.53 92.1786 43.9779 92.1786 43.9779 108.692ZM136.057 97.6906C136.057 96.2307 135.489 94.8305 134.477 93.7971 133.466 92.7637 132.093 92.1816 130.661 92.1786L120.671 92.1786 120.671 108.692 124.72 108.692 124.72 103.203 128.265 103.203 131.383 108.692 136.057 108.692 132.706 102.792C133.7 102.379 134.55 101.673 135.148 100.764 135.745 99.855 136.061 98.7847 136.057 97.6906L136.057 97.6906ZM130.287 99.5261 124.72 99.5261 124.72 95.8436 130.287 95.8436C130.747 95.87 131.181 96.0752 131.498 96.417 131.815 96.7589 131.991 97.2115 131.991 97.6819 131.991 98.1524 131.815 98.605 131.498 98.9469 131.181 99.2887 130.747 99.4939 130.287 99.5203L130.287 99.5261Z" fill="#000000"/></svg>